/* XPM */
static char *Disk[] = {
/* columns rows colors chars-per-pixel */
"32 16 52 1 ",
"  c black",
". c #00B000B000B0",
"X c #059905990599",
"o c #0FF60FF60FF6",
"O c #140C140C140C",
"+ c #15C615C615C6",
"@ c #1B711B711B71",
"# c #1C831C831C83",
"$ c #1D531D531D53",
"% c #1E821E821E82",
"& c #1F4F1F4F1F4F",
"* c #1FBF1FBF1FBF",
"= c #27FC27FC27FC",
"- c #291529152915",
"; c #2AC02AC02AC0",
": c #50D050D050D0",
"> c #532A532A532A",
", c #6A496A496A49",
"< c #746F746F746F",
"1 c #7C8E7C8E7C8E",
"2 c #7D997D997D99",
"3 c #7E367E367E36",
"4 c #802080208020",
"5 c #889588958895",
"6 c #8F848F848F84",
"7 c #904190419041",
"8 c #966796679667",
"9 c #98F998F998F9",
"0 c #9ABA9ABA9ABA",
"q c #9BDD9BDD9BDD",
"w c #9C989C989C98",
"e c #A782A782A782",
"r c #B005B005B005",
"t c #B0BCB0BCB0BC",
"y c #B6BBB6BBB6BB",
"u c #BC0CBC0CBC0C",
"i c #C100C100C100",
"p c #CB7DCB7DCB7D",
"a c #D394D394D394",
"s c #D774D774D774",
"d c #DF2ADF2ADF2A",
"f c #DFF5DFF5DFF5",
"g c #E0E4E0E4E0E4",
"h c #E238E238E238",
"j c #E27FE27FE27F",
"k c #E429E429E429",
"l c #E5A8E5A8E5A8",
"z c #F3E1F3E1F3E1",
"x c #FCCBFCCBFCCB",
"c c #FE72FE72FE72",
"v c gray100",
"b c None",
/* pixels */
"bbbbbbbbbbbbbbbbbbbbbbbbbbbbbbbb",
"bbbbbb.bX$$***$$****$$$Xb.bbbbbb",
"bbb+*:335skkkkkddkkkkks533:$-bbb",
"bb.:uazvvvvvvvvvvvvvvvvvvzsy,obb",
"bb$ue6<qq8adddddddddda8qq<6qq$bb",
"bb*kvvkddr8wqqqqqqqqw8rkdkxvk$bb",
"bb$kvvvvvvvvvvvvvvvvvvvvvvvvk*bb",
"bb$kvvvvvvvvvvvvvvvvvvvvvvvvk$bb",
"bb*kvvvvvvvvvvvvvvvvvvvvvvvvk$bb",
"bb$kvvvvvvvvvvvvvvvvvvvvvvvvk$bb",
"bb$kvvvvvvvvvvvvvvvvvvvvvvvvk*bb",
"bb$kvvvvvvvvvvvvvvvvvvvvvvvvk$bb",
"bb@pvvvvvvvvvvvvvvvvvvvvvvvvp@bb",
"bbb-<1tlklvvvvvvvvvvvvlkkr1<-bbb",
"bbbbbb+$$-<3133333133<-$$+bbbbbb",
"bbbbbbbbbb............bbbbbbbbbb"
};
