/* XPM */
static char * line_L_arrow_xpm[] = {
"16 8 2 1",
" 	s None	c None",
".	c black",
"          ..    ",
"        ...     ",
"      ...       ",
"    ............",
"    ............",
"      ...       ",
"        ...     ",
"          ..    "};
