/* XPM */
static char * pullup_xpm[] = {
"8 8 2 1",
" 	s None	c None",
".	c black",
"   ..   ",
"  ....  ",
" ..  .. ",
".. .. ..",
". .... .",
" ..  .. ",
"..    ..",
".      ."};
