/* XPM */
static char *bullet_del__[] = {
/* columns rows colors chars-per-pixel */
"7 7 27 1",
"  c #415C12",
". c #425D12",
"X c #4C671E",
"o c #4D691D",
"O c #577228",
"+ c #577229",
"@ c #58732A",
"# c #59732B",
"$ c #607B32",
"% c #617D34",
"& c #658238",
"* c #668339",
"= c #66843A",
"- c #67853A",
"; c #69863B",
": c #6F8E40",
"> c #6F8E41",
", c #708F41",
"< c #719042",
"1 c #7B9B4B",
"2 c #7C9B4B",
"3 c #829561",
"4 c #8FA270",
"5 c #90A471",
"6 c #9AAF7A",
"7 c gray100",
"8 c None",
/* pixels */
"8811288",
"8>>><<8",
"=*&===;",
"$47775%",
"OOOOO@@",
"8ooooX8",
"88   88"
};
