<?xml version="1.0" standalone="yes"  ?>
<svg xml:space="preserve" width="772" height="837"
 xmlns='http://www.w3.org/2000/svg' 
viewBox="0 0 772 837">
<!--
 This file was made by umled. 
 It must not be revised with other tools.
-->
<!--@set FILE_VERSION 0.3;set PRINT(orientation) portrait-->
<!-- =============== Cable ================ -->
<g>
<!--@set LOAD(I-20) [newItem .can Cable { {x {$LOAD(I-6) x 128.0}} {y {$LOAD(I-6) y 0}} {ex {$LOAD(I-16) x 104.0}} {ey {$LOAD(I-16) y end}} {vx {}} {vy {}} {ltype {5}} {liner {}} {but {}} {vut {}} {eut {}} {blt {}} {vlt {}} {elt {}} }]-->
<polyline fill="none" stroke="black"  stroke-width="2.0" points="366.0 650.0 366.0 526.0"  />
<polyline fill="none" stroke="black"  stroke-width="2.0" points="366.0 526.0 342.0 526.0"  />
<polyline fill="none" stroke="black"  stroke-width="2.0" points="342.0 526.0 342.0 402.0"  />
<polygon fill="white" stroke="black"  stroke-width="1.0" points="342.0 402.0 338.0 409.0 342.0 416.0 346.0 409.0" />
</g>
<!-- =============== Class ================ -->
<g>
<!--@set LOAD(I-19) [newItem .can Class { {x {30.0}} {y {186.0}} {w {158}} {h {139}} {stype {}} {name {Editor}} {attr {workSpace:WorkSpace&nl;chipSpace:ChipSpace&nl;history:string[ ]&nl;mapInfo:MapInfo&nl;server:Server}} {op {各種機能()}} }]-->
<rect x="31.0" y="187.0" width="156.0" height="29.0"  fill="white" stroke="black" stroke-width="2.0"/>
<rect x="31.0" y="216.0" width="156.0" height="86.0"  fill="white" stroke="black" stroke-width="2.0"/>
<rect x="31.0" y="302.0" width="156.0" height="22.0"  fill="white" stroke="black" stroke-width="2.0"/>
<g>
 <text x="90" y="211" font-size="12" >Editor</text>
</g>
<g>
 <text x="33" y="233" font-size="12" >workSpace:WorkSpace</text>
 <text x="33" y="249" font-size="12" >chipSpace:ChipSpace</text>
 <text x="33" y="265" font-size="12" >history:string[ ]</text>
 <text x="33" y="281" font-size="12" >mapInfo:MapInfo</text>
 <text x="33" y="297" font-size="12" >server:Server</text>
</g>
<g>
 <text x="73" y="319" font-size="12" >各種機能()</text>
</g>
</g>
<!-- =============== Class ================ -->
<g>
<!--@set LOAD(I-2) [newItem .can Class { {x {422.0}} {y {418.0}} {w {158}} {h {315}} {stype {}} {name {Layer}} {attr {name:string&nl;elem:Canvas&nl;workSpace:WorkSpace&nl;tiles:int[ ][ ]&nl;width:int&nl;height:int&nl;isVisible:bool}} {op {chipSet()&nl;flush()&nl;cut(x,y,w,h):ClipBuffer&nl;copy(x,y,w,h):ClipBuffer&nl;paste(x,y,clipBuffer)&nl;show(bool)&nl;toJSON():string&nl;fromJSON(string)&nl;opacity(float)&nl;resize(w,h)}} }]-->
<rect x="423.0" y="419.0" width="156.0" height="29.0"  fill="white" stroke="black" stroke-width="2.0"/>
<rect x="423.0" y="448.0" width="156.0" height="118.0"  fill="white" stroke="black" stroke-width="2.0"/>
<rect x="423.0" y="566.0" width="156.0" height="166.0"  fill="white" stroke="black" stroke-width="2.0"/>
<g>
 <text x="482" y="443" font-size="12" >Layer</text>
</g>
<g>
 <text x="425" y="465" font-size="12" >name:string</text>
 <text x="425" y="481" font-size="12" >elem:Canvas</text>
 <text x="425" y="497" font-size="12" >workSpace:WorkSpace</text>
 <text x="425" y="513" font-size="12" >tiles:int[ ][ ]</text>
 <text x="425" y="529" font-size="12" >width:int</text>
 <text x="425" y="545" font-size="12" >height:int</text>
 <text x="425" y="561" font-size="12" >isVisible:bool</text>
</g>
<g>
 <text x="428" y="583" font-size="12" >chipSet()</text>
 <text x="428" y="599" font-size="12" >flush()</text>
 <text x="428" y="615" font-size="12" >cut(x,y,w,h):ClipBuffer</text>
 <text x="428" y="631" font-size="12" >copy(x,y,w,h):ClipBuffer</text>
 <text x="428" y="647" font-size="12" >paste(x,y,clipBuffer)</text>
 <text x="428" y="663" font-size="12" >show(bool)</text>
 <text x="428" y="679" font-size="12" >toJSON():string</text>
 <text x="428" y="695" font-size="12" >fromJSON(string)</text>
 <text x="428" y="711" font-size="12" >opacity(float)</text>
 <text x="428" y="727" font-size="12" >resize(w,h)</text>
</g>
</g>
<!-- =============== Cable ================ -->
<g>
<!--@set LOAD(I-21) [newItem .can Cable { {x {$LOAD(I-16) x 0}} {y {$LOAD(I-16) y 16.0}} {ex {$LOAD(I-19) x end}} {ey {$LOAD(I-19) y 40.0}} {vx {}} {vy {}} {ltype {5}} {liner {}} {but {1..*}} {vut {}} {eut {}} {blt {}} {vlt {}} {elt {}} }]-->
<polyline fill="none" stroke="black"  stroke-width="2.0" points="238.0 202.0 212.0 202.0"  />
<polyline fill="none" stroke="black"  stroke-width="2.0" points="212.0 202.0 212.0 226.0"  />
<polyline fill="none" stroke="black"  stroke-width="2.0" points="212.0 226.0 186.0 226.0"  />
<polygon fill="white" stroke="black"  stroke-width="1.0" points="186.0 226.0 193.0 222.0 200.0 226.0 193.0 230.0" />
<g>
 <text x="214" y="197" font-size="12" >1..*</text>
</g>
</g>
<!-- =============== Cable ================ -->
<g>
<!--@set LOAD(I-3) [newItem .can Cable { {x {$LOAD(I-22) x 60.0}} {y {$LOAD(I-22) y 0}} {ex {$LOAD(I-0) x 68.0}} {ey {$LOAD(I-0) y end}} {vx {}} {vy {}} {ltype {3}} {liner {}} {but {}} {vut {}} {eut {}} {blt {}} {vlt {}} {elt {}} }]-->
<polyline fill="none" stroke="black"  stroke-width="2.0" points="86.0 706.0 86.0 694.0"  />
<polyline fill="none" stroke="black"  stroke-width="2.0" points="86.0 694.0 86.0 694.0"  />
<polyline fill="none" stroke="black"  stroke-width="2.0" points="86.0 694.0 86.0 682.0"  />
<polygon fill="white" stroke="black"  stroke-width="1.0" points="86.0 682.0 81.0 692.0 86.0 692.0 91.0 692.0" />
</g>
<!-- =============== Class ================ -->
<g>
<!--@set LOAD(I-22) [newItem .can Class { {x {26.0}} {y {706.0}} {w {128}} {h {43}} {stype {}} {name {LocalServer}} {attr {}} {op {}} }]-->
<rect x="27.0" y="707.0" width="126.0" height="29.0"  fill="white" stroke="black" stroke-width="2.0"/>
<rect x="27.0" y="736.0" width="126.0" height="6.0"  fill="white" stroke="black" stroke-width="2.0"/>
<rect x="27.0" y="742.0" width="126.0" height="6.0"  fill="white" stroke="black" stroke-width="2.0"/>
<g>
 <text x="50" y="731" font-size="12" >LocalServer</text>
</g>
</g>
<!-- =============== Cable ================ -->
<g>
<!--@set LOAD(I-4) [newItem .can Cable { {x {$LOAD(I-0) x 32.0}} {y {$LOAD(I-0) y 0}} {ex {$LOAD(I-19) x 16.0}} {ey {$LOAD(I-19) y end}} {vx {}} {vy {}} {ltype {5}} {liner {}} {but {}} {vut {}} {eut {}} {blt {}} {vlt {}} {elt {}} }]-->
<polyline fill="none" stroke="black"  stroke-width="2.0" points="50.0 598.0 50.0 460.0"  />
<polyline fill="none" stroke="black"  stroke-width="2.0" points="50.0 460.0 46.0 460.0"  />
<polyline fill="none" stroke="black"  stroke-width="2.0" points="46.0 460.0 46.0 322.0"  />
<polygon fill="white" stroke="black"  stroke-width="1.0" points="46.0 322.0 42.0 329.0 46.0 336.0 50.0 329.0" />
</g>
<!-- =============== Cable ================ -->
<g>
<!--@set LOAD(I-23) [newItem .can Cable { {x {$LOAD(I-19) x 80.0}} {y {$LOAD(I-19) y 0}} {ex {$LOAD(I-5) x 68.0}} {ey {$LOAD(I-5) y end}} {vx {}} {vy {}} {ltype {5}} {liner {}} {but {}} {vut {}} {eut {}} {blt {}} {vlt {}} {elt {}} }]-->
<polyline fill="none" stroke="black"  stroke-width="2.0" points="110.0 186.0 110.0 168.0"  />
<polyline fill="none" stroke="black"  stroke-width="2.0" points="110.0 168.0 110.0 168.0"  />
<polyline fill="none" stroke="black"  stroke-width="2.0" points="110.0 168.0 110.0 150.0"  />
<polygon fill="white" stroke="black"  stroke-width="1.0" points="110.0 150.0 106.0 157.0 110.0 164.0 114.0 157.0" />
</g>
<!-- =============== Class ================ -->
<g>
<!--@set LOAD(I-5) [newItem .can Class { {x {42.0}} {y {78.0}} {w {128}} {h {75}} {stype {singleton}} {name {UIManager}} {attr {editor:Editor}} {op {各種コマンド()}} }]-->
<rect x="43.0" y="79.0" width="126.0" height="29.0"  fill="white" stroke="black" stroke-width="2.0"/>
<rect x="43.0" y="108.0" width="126.0" height="22.0"  fill="white" stroke="black" stroke-width="2.0"/>
<rect x="43.0" y="130.0" width="126.0" height="22.0"  fill="white" stroke="black" stroke-width="2.0"/>
<g>
 <text x="66" y="88" font-size="8" >&lt;&lt;singleton&gt;&gt;</text>
</g>
<g>
 <text x="69" y="103" font-size="12" >UIManager</text>
</g>
<g>
 <text x="67" y="125" font-size="12" >editor:Editor</text>
</g>
<g>
 <text x="55" y="147" font-size="12" >各種コマンド()</text>
</g>
</g>
<!-- =============== Note ================ -->
<g>
<!--@set LOAD(I-24) [newItem .can Note { {x {78.0}} {y {22.0}} {w {57}} {h {24}} {frame {normal}} {font {f12}} {text {HTML}} }]-->
<polygon fill="white" stroke="black"  stroke-width="1.0" points="79.0 24.0 125.0 24.0 133.0 32.0 133.0 44.0 79.0 44.0" />
<polyline fill="none" stroke="black"  stroke-width="1.0" points="125.0 24.0 125.0 32.0 133.0 32.0"  />
<g>
 <text x="81" y="39" font-size="12" >HTML</text>
</g>
</g>
<!-- =============== Class ================ -->
<g>
<!--@set LOAD(I-6) [newItem .can Class { {x {238.0}} {y {650.0}} {w {158}} {h {171}} {stype {}} {name {Selector}} {attr {elem:Div&nl;workSpace:WorkSpace&nl;x,y,width,height:int}} {op {offset(x,y)&nl;resize(w,h)&nl;onMouseDown(ev)&nl;onMouseUp(ev)&nl;onMouseMove(ev)}} }]-->
<rect x="239.0" y="651.0" width="156.0" height="29.0"  fill="white" stroke="black" stroke-width="2.0"/>
<rect x="239.0" y="680.0" width="156.0" height="54.0"  fill="white" stroke="black" stroke-width="2.0"/>
<rect x="239.0" y="734.0" width="156.0" height="86.0"  fill="white" stroke="black" stroke-width="2.0"/>
<g>
 <text x="290" y="675" font-size="12" >Selector</text>
</g>
<g>
 <text x="241" y="697" font-size="12" >elem:Div</text>
 <text x="241" y="713" font-size="12" >workSpace:WorkSpace</text>
 <text x="241" y="729" font-size="12" >x,y,width,height:int</text>
</g>
<g>
 <text x="254" y="751" font-size="12" >offset(x,y)</text>
 <text x="254" y="767" font-size="12" >resize(w,h)</text>
 <text x="254" y="783" font-size="12" >onMouseDown(ev)</text>
 <text x="254" y="799" font-size="12" >onMouseUp(ev)</text>
 <text x="254" y="815" font-size="12" >onMouseMove(ev)</text>
</g>
</g>
<!-- =============== Cable ================ -->
<g>
<!--@set LOAD(I-25) [newItem .can Cable { {x {$LOAD(I-24) x 28.0}} {y {$LOAD(I-24) y end}} {ex {$LOAD(I-5) x 64.0}} {ey {$LOAD(I-5) y 0}} {vx {}} {vy {}} {ltype {7}} {liner {}} {but {}} {vut {}} {eut {}} {blt {}} {vlt {}} {elt {}} }]-->
<polyline fill="none" stroke="black"  stroke-width="2.0" points="106.0 46.0 106.0 62.0" style="stroke-dasharray:4" />
<polyline fill="none" stroke="black"  stroke-width="2.0" points="106.0 62.0 106.0 62.0"  />
<polyline fill="none" stroke="black"  stroke-width="2.0" points="106.0 62.0 106.0 78.0" style="stroke-dasharray:4" />
<polygon fill="black" stroke="black"  stroke-width="1.0" points="106.0 78.0 101.0 68.0 106.0 78.0 111.0 68.0" />
</g>
<!-- =============== Class ================ -->
<g>
<!--@set LOAD(I-7) [newItem .can Class { {x {634.0}} {y {282.0}} {w {128}} {h {53}} {stype {}} {name {MagicBuffer}} {attr {}} {op {flush()}} }]-->
<rect x="635.0" y="283.0" width="126.0" height="29.0"  fill="white" stroke="black" stroke-width="2.0"/>
<rect x="635.0" y="312.0" width="126.0" height="6.0"  fill="white" stroke="black" stroke-width="2.0"/>
<rect x="635.0" y="318.0" width="126.0" height="16.0"  fill="white" stroke="black" stroke-width="2.0"/>
<g>
 <text x="659" y="307" font-size="12" >MagicBuffer</text>
</g>
<g>
 <text x="677" y="329" font-size="12" >flush()</text>
</g>
</g>
<!-- =============== Class ================ -->
<g>
<!--@set LOAD(I-26) [newItem .can Class { {x {74.0}} {y {374.0}} {w {128}} {h {53}} {stype {singleton}} {name {EditAction}} {attr {}} {op {編集機能(editor)}} }]-->
<rect x="75.0" y="375.0" width="126.0" height="29.0"  fill="white" stroke="black" stroke-width="2.0"/>
<rect x="75.0" y="404.0" width="126.0" height="6.0"  fill="white" stroke="black" stroke-width="2.0"/>
<rect x="75.0" y="410.0" width="126.0" height="16.0"  fill="white" stroke="black" stroke-width="2.0"/>
<g>
 <text x="98" y="384" font-size="8" >&lt;&lt;singleton&gt;&gt;</text>
</g>
<g>
 <text x="104" y="399" font-size="12" >EditAction</text>
</g>
<g>
 <text x="84" y="421" font-size="12" >編集機能(editor)</text>
</g>
</g>
<!-- =============== Cable ================ -->
<g>
<!--@set LOAD(I-8) [newItem .can Cable { {x {$LOAD(I-7) x 0}} {y {$LOAD(I-7) y 20.0}} {ex {$LOAD(I-1) x end}} {ey {$LOAD(I-1) y 12.0}} {vx {}} {vy {}} {ltype {3}} {liner {}} {but {}} {vut {}} {eut {}} {blt {}} {vlt {}} {elt {}} }]-->
<polyline fill="none" stroke="black"  stroke-width="2.0" points="634.0 302.0 604.0 302.0"  />
<polyline fill="none" stroke="black"  stroke-width="2.0" points="604.0 302.0 604.0 294.0"  />
<polyline fill="none" stroke="black"  stroke-width="2.0" points="604.0 294.0 574.0 294.0"  />
<polygon fill="white" stroke="black"  stroke-width="1.0" points="574.0 294.0 584.0 289.0 584.0 294.0 584.0 299.0" />
</g>
<!-- =============== Cable ================ -->
<g>
<!--@set LOAD(I-27) [newItem .can Cable { {x {$LOAD(I-26) x 56.0}} {y {$LOAD(I-26) y 0}} {ex {$LOAD(I-19) x 100.0}} {ey {$LOAD(I-19) y end}} {vx {}} {vy {}} {ltype {5}} {liner {}} {but {}} {vut {}} {eut {}} {blt {}} {vlt {}} {elt {}} }]-->
<polyline fill="none" stroke="black"  stroke-width="2.0" points="130.0 374.0 130.0 348.0"  />
<polyline fill="none" stroke="black"  stroke-width="2.0" points="130.0 348.0 130.0 348.0"  />
<polyline fill="none" stroke="black"  stroke-width="2.0" points="130.0 348.0 130.0 322.0"  />
<polygon fill="white" stroke="black"  stroke-width="1.0" points="130.0 322.0 126.0 329.0 130.0 336.0 134.0 329.0" />
</g>
<!-- =============== Cable ================ -->
<g>
<!--@set LOAD(I-9) [newItem .can Cable { {x {$LOAD(I-1) x 64.0}} {y {$LOAD(I-1) y end}} {ex {$LOAD(I-2) x 68.0}} {ey {$LOAD(I-2) y 0}} {vx {}} {vy {}} {ltype {3}} {liner {}} {but {}} {vut {}} {eut {}} {blt {}} {vlt {}} {elt {}} }]-->
<polyline fill="none" stroke="black"  stroke-width="2.0" points="510.0 370.0 510.0 394.0"  />
<polyline fill="none" stroke="black"  stroke-width="2.0" points="510.0 394.0 490.0 394.0"  />
<polyline fill="none" stroke="black"  stroke-width="2.0" points="490.0 394.0 490.0 418.0"  />
<polygon fill="white" stroke="black"  stroke-width="1.0" points="490.0 418.0 485.0 408.0 490.0 408.0 495.0 408.0" />
</g>
<!-- =============== Class ================ -->
<g>
<!--@set LOAD(I-10) [newItem .can Class { {x {430.0}} {y {758.0}} {w {128}} {h {69}} {stype {}} {name {CollisionLayer}} {attr {}} {op {chipSet()&nl;paste()}} }]-->
<rect x="431.0" y="759.0" width="126.0" height="29.0"  fill="white" stroke="black" stroke-width="2.0"/>
<rect x="431.0" y="788.0" width="126.0" height="6.0"  fill="white" stroke="black" stroke-width="2.0"/>
<rect x="431.0" y="794.0" width="126.0" height="32.0"  fill="white" stroke="black" stroke-width="2.0"/>
<g>
 <text x="448" y="783" font-size="12" >CollisionLayer</text>
</g>
<g>
 <text x="464" y="805" font-size="12" >chipSet()</text>
 <text x="464" y="821" font-size="12" >paste()</text>
</g>
</g>
<!-- =============== Class ================ -->
<g>
<!--@set LOAD(I-11) [newItem .can Class { {x {490.0}} {y {190.0}} {w {128}} {h {69}} {stype {}} {name {ChipSpace}} {attr {}} {op {onloadChipSet()&nl;selectionEnd()}} }]-->
<rect x="491.0" y="191.0" width="126.0" height="29.0"  fill="white" stroke="black" stroke-width="2.0"/>
<rect x="491.0" y="220.0" width="126.0" height="6.0"  fill="white" stroke="black" stroke-width="2.0"/>
<rect x="491.0" y="226.0" width="126.0" height="32.0"  fill="white" stroke="black" stroke-width="2.0"/>
<g>
 <text x="518" y="215" font-size="12" >ChipSpace</text>
</g>
<g>
 <text x="502" y="237" font-size="12" >onloadChipSet()</text>
 <text x="502" y="253" font-size="12" >selectionEnd()</text>
</g>
</g>
<!-- =============== Class ================ -->
<g>
<!--@set LOAD(I-12) [newItem .can Class { {x {186.0}} {y {462.0}} {w {142}} {h {155}} {stype {}} {name {ChipSet}} {attr {elem:Image&nl;width:int&nl;height:int&nl;tileWidth&nl;tilwHeight}} {op {draw(ctx,frame,dx,dy)&nl;getFrame(x,y)}} }]-->
<rect x="187.0" y="463.0" width="140.0" height="29.0"  fill="white" stroke="black" stroke-width="2.0"/>
<rect x="187.0" y="492.0" width="140.0" height="86.0"  fill="white" stroke="black" stroke-width="2.0"/>
<rect x="187.0" y="578.0" width="140.0" height="38.0"  fill="white" stroke="black" stroke-width="2.0"/>
<g>
 <text x="231" y="487" font-size="12" >ChipSet</text>
</g>
<g>
 <text x="220" y="509" font-size="12" >elem:Image</text>
 <text x="220" y="525" font-size="12" >width:int</text>
 <text x="220" y="541" font-size="12" >height:int</text>
 <text x="220" y="557" font-size="12" >tileWidth</text>
 <text x="220" y="573" font-size="12" >tilwHeight</text>
</g>
<g>
 <text x="189" y="595" font-size="12" >draw(ctx,frame,dx,dy)</text>
 <text x="189" y="611" font-size="12" >getFrame(x,y)</text>
</g>
</g>
<!-- =============== Cable ================ -->
<g>
<!--@set LOAD(I-13) [newItem .can Cable { {x {$LOAD(I-11) x 0}} {y {$LOAD(I-11) y 16.0}} {ex {$LOAD(I-16) x end}} {ey {$LOAD(I-16) y 20.0}} {vx {}} {vy {}} {ltype {3}} {liner {}} {but {}} {vut {}} {eut {}} {blt {}} {vlt {}} {elt {}} }]-->
<polyline fill="none" stroke="black"  stroke-width="2.0" points="490.0 206.0 430.0 206.0"  />
<polyline fill="none" stroke="black"  stroke-width="2.0" points="430.0 206.0 430.0 206.0"  />
<polyline fill="none" stroke="black"  stroke-width="2.0" points="430.0 206.0 370.0 206.0"  />
<polygon fill="white" stroke="black"  stroke-width="1.0" points="370.0 206.0 380.0 201.0 380.0 206.0 380.0 211.0" />
</g>
<!-- =============== Cable ================ -->
<g>
<!--@set LOAD(I-14) [newItem .can Cable { {x {$LOAD(I-10) x 64.0}} {y {$LOAD(I-10) y 0}} {ex {$LOAD(I-2) x 76.0}} {ey {$LOAD(I-2) y end}} {vx {}} {vy {}} {ltype {3}} {liner {}} {but {}} {vut {}} {eut {}} {blt {}} {vlt {}} {elt {}} }]-->
<polyline fill="none" stroke="black"  stroke-width="2.0" points="494.0 758.0 494.0 744.0"  />
<polyline fill="none" stroke="black"  stroke-width="2.0" points="494.0 744.0 498.0 744.0"  />
<polyline fill="none" stroke="black"  stroke-width="2.0" points="498.0 744.0 498.0 730.0"  />
<polygon fill="white" stroke="black"  stroke-width="1.0" points="498.0 730.0 493.0 740.0 498.0 740.0 503.0 740.0" />
</g>
<!-- =============== Cable ================ -->
<g>
<!--@set LOAD(I-15) [newItem .can Cable { {x {$LOAD(I-12) x 64.0}} {y {$LOAD(I-12) y 0}} {ex {$LOAD(I-16) x 64.0}} {ey {$LOAD(I-16) y end}} {vx {}} {vy {}} {ltype {5}} {liner {}} {but {1}} {vut {}} {eut {*}} {blt {}} {vlt {}} {elt {}} }]-->
<polyline fill="none" stroke="black"  stroke-width="2.0" points="250.0 462.0 250.0 432.0"  />
<polyline fill="none" stroke="black"  stroke-width="2.0" points="250.0 432.0 302.0 432.0"  />
<polyline fill="none" stroke="black"  stroke-width="2.0" points="302.0 432.0 302.0 402.0"  />
<polygon fill="white" stroke="black"  stroke-width="1.0" points="302.0 402.0 298.0 409.0 302.0 416.0 306.0 409.0" />
<g>
 <text x="251" y="457" font-size="12" >1</text>
</g>
<g>
 <text x="303" y="417" font-size="12" >*</text>
</g>
</g>
<!-- =============== Class ================ -->
<g>
<!--@set LOAD(I-16) [newItem .can Class { {x {238.0}} {y {186.0}} {w {135}} {h {219}} {stype {}} {name {WorkSpace}} {attr {elem:div&nl;clipBuffer:ClipBuffer&nl;layers:Layer[ ]&nl;collisionLayer:Layer&nl;selector:Selector&nl;width:int&nl;height:int}} {op {addLayer(name)&nl;toJSON():string&nl;fromJSON(string)&nl;resize(w,h)}} }]-->
<rect x="239.0" y="187.0" width="133.0" height="29.0"  fill="white" stroke="black" stroke-width="2.0"/>
<rect x="239.0" y="216.0" width="133.0" height="118.0"  fill="white" stroke="black" stroke-width="2.0"/>
<rect x="239.0" y="334.0" width="133.0" height="70.0"  fill="white" stroke="black" stroke-width="2.0"/>
<g>
 <text x="266" y="211" font-size="12" >WorkSpace</text>
</g>
<g>
 <text x="241" y="233" font-size="12" >elem:div</text>
 <text x="241" y="249" font-size="12" >clipBuffer:ClipBuffer</text>
 <text x="241" y="265" font-size="12" >layers:Layer[ ]</text>
 <text x="241" y="281" font-size="12" >collisionLayer:Layer</text>
 <text x="241" y="297" font-size="12" >selector:Selector</text>
 <text x="241" y="313" font-size="12" >width:int</text>
 <text x="241" y="329" font-size="12" >height:int</text>
</g>
<g>
 <text x="249" y="351" font-size="12" >addLayer(name)</text>
 <text x="249" y="367" font-size="12" >toJSON():string</text>
 <text x="249" y="383" font-size="12" >fromJSON(string)</text>
 <text x="249" y="399" font-size="12" >resize(w,h)</text>
</g>
</g>
<!-- =============== Cable ================ -->
<g>
<!--@set LOAD(I-17) [newItem .can Cable { {x {$LOAD(I-1) x 0}} {y {$LOAD(I-1) y 16.0}} {ex {$LOAD(I-16) x end}} {ey {$LOAD(I-16) y 56.0}} {vx {}} {vy {}} {ltype {5}} {liner {}} {but {1}} {vut {}} {eut {}} {blt {}} {vlt {}} {elt {}} }]-->
<polyline fill="none" stroke="black"  stroke-width="2.0" points="446.0 298.0 408.0 298.0"  />
<polyline fill="none" stroke="black"  stroke-width="2.0" points="408.0 298.0 408.0 242.0"  />
<polyline fill="none" stroke="black"  stroke-width="2.0" points="408.0 242.0 370.0 242.0"  />
<polygon fill="white" stroke="black"  stroke-width="1.0" points="370.0 242.0 377.0 238.0 384.0 242.0 377.0 246.0" />
<g>
 <text x="435" y="293" font-size="12" >1</text>
</g>
</g>
<!-- =============== Class ================ -->
<g>
<!--@set LOAD(I-0) [newItem .can Class { {x {18.0}} {y {598.0}} {w {150}} {h {85}} {stype {interface}} {name {Server}} {attr {}} {op {save(name,SnapShot)&nl;load(name):SnapShot&nl;list(dir):string[ ]}} }]-->
<rect x="19.0" y="599.0" width="148.0" height="29.0"  fill="white" stroke="black" stroke-width="2.0"/>
<rect x="19.0" y="628.0" width="148.0" height="6.0"  fill="white" stroke="black" stroke-width="2.0"/>
<rect x="19.0" y="634.0" width="148.0" height="48.0"  fill="white" stroke="black" stroke-width="2.0"/>
<g>
 <text x="53" y="608" font-size="8" >&lt;&lt;interface&gt;&gt;</text>
</g>
<g>
 <text x="71" y="623" font-size="12" >Server</text>
</g>
<g>
 <text x="21" y="645" font-size="12" >save(name,SnapShot)</text>
 <text x="21" y="661" font-size="12" >load(name):SnapShot</text>
 <text x="21" y="677" font-size="12" >list(dir):string[ ]</text>
</g>
</g>
<!-- =============== Cable ================ -->
<g>
<!--@set LOAD(I-18) [newItem .can Cable { {x {$LOAD(I-2) x 0}} {y {$LOAD(I-2) y 16.0}} {ex {$LOAD(I-16) x end}} {ey {$LOAD(I-16) y 80.0}} {vx {}} {vy {}} {ltype {5}} {liner {}} {but {1..*}} {vut {}} {eut {}} {blt {}} {vlt {}} {elt {}} }]-->
<polyline fill="none" stroke="black"  stroke-width="2.0" points="422.0 434.0 396.0 434.0"  />
<polyline fill="none" stroke="black"  stroke-width="2.0" points="396.0 434.0 396.0 266.0"  />
<polyline fill="none" stroke="black"  stroke-width="2.0" points="396.0 266.0 370.0 266.0"  />
<polygon fill="white" stroke="black"  stroke-width="1.0" points="370.0 266.0 377.0 262.0 384.0 266.0 377.0 270.0" />
<g>
 <text x="398" y="429" font-size="12" >1..*</text>
</g>
</g>
<!-- =============== Class ================ -->
<g>
<!--@set LOAD(I-1) [newItem .can Class { {x {446.0}} {y {282.0}} {w {128}} {h {91}} {stype {}} {name {ClipBuffer}} {attr {x:int&nl;y:int}} {op {offset(x,y)}} }]-->
<rect x="447.0" y="283.0" width="126.0" height="29.0"  fill="white" stroke="black" stroke-width="2.0"/>
<rect x="447.0" y="312.0" width="126.0" height="38.0"  fill="white" stroke="black" stroke-width="2.0"/>
<rect x="447.0" y="350.0" width="126.0" height="22.0"  fill="white" stroke="black" stroke-width="2.0"/>
<g>
 <text x="479" y="307" font-size="12" >ClipBuffer</text>
</g>
<g>
 <text x="497" y="329" font-size="12" >x:int</text>
 <text x="497" y="345" font-size="12" >y:int</text>
</g>
<g>
 <text x="479" y="367" font-size="12" >offset(x,y)</text>
</g>
</g>
</svg>
