/* XPM */
static char * 1_xpm[] = {
"32 32 4 1",
" 	c gray95",
".	c gray50",
"X	c white",
"o	c black",
"                               .",
"                               .",
"                               .",
"                               .",
"                               .",
"                               .",
"                               .",
"                               .",
"                              ..",
"                              ..",
"                              ..",
"                              ..",
"                              ..",
"                              ..",
"                              .X",
"XXXXXXXXXXXXXXXXXXXXXXXXXXXXXX..",
"..............................oo",
"..............................oo",
"..............................oo",
"..............................oo",
"..............................oo",
"..............................oo",
"..............................oo",
"..............................oo",
"...............................o",
"...............................o",
"...............................o",
"...............................o",
"...............................o",
"...............................o",
"...............................o",
"...............................o"};
