/* XPM */
static char * arrow_yR_xpm[] = {
"32 32 2 1",
" 	s None	c None",
".	c #F0F0F0F00000",
"                                ",
"                                ",
"                                ",
"                                ",
"                                ",
"                                ",
"                                ",
"                                ",
"     .             .            ",
"     ..            ..           ",
"     ...           ...          ",
"     ....          ....         ",
"     .....         .....        ",
"     ......        ......       ",
"     .......       .......      ",
"     ........      ........     ",
"     ........      ........     ",
"     .......       .......      ",
"     ......        ......       ",
"     .....         .....        ",
"     ....          ....         ",
"     ...           ...          ",
"     ..            ..           ",
"     .             .            ",
"                                ",
"                                ",
"                                ",
"                                ",
"                                ",
"                                ",
"                                ",
"                                "};
