/* XPM */
static char * bar_ud_xpm[] = {
"32 32 3 1",
" 	s None	c None",
".	c white",
"X	c #888888888888",
"               ..               ",
"              .XX.              ",
"              .XX.              ",
"              .XX.              ",
"              .XX.              ",
"              .XX.              ",
"              .XX.              ",
"              .XX.              ",
"              .XX.              ",
"              .XX.              ",
"              .XX.              ",
"              .XX.              ",
"              .XX.              ",
"              .XX.              ",
"              .XX.              ",
"              .XX.              ",
"              .XX.              ",
"              .XX.              ",
"              .XX.              ",
"              .XX.              ",
"              .XX.              ",
"              .XX.              ",
"              .XX.              ",
"              .XX.              ",
"              .XX.              ",
"              .XX.              ",
"              .XX.              ",
"              .XX.              ",
"              .XX.              ",
"              .XX.              ",
"              .XX.              ",
"               ..               "};
