/* XPM */
static char * bar_rd_xpm[] = {
"32 32 3 1",
" 	s None	c None",
".	c white",
"X	c #888888888888",
"                                ",
"                                ",
"                                ",
"                                ",
"                                ",
"                                ",
"                                ",
"                                ",
"                                ",
"                                ",
"                                ",
"                                ",
"                                ",
"                                ",
"              ................. ",
"              .XXXXXXXXXXXXXXXX.",
"              .XXXXXXXXXXXXXXXX.",
"              .XX.............. ",
"              .XX.              ",
"              .XX.              ",
"              .XX.              ",
"              .XX.              ",
"              .XX.              ",
"              .XX.              ",
"              .XX.              ",
"              .XX.              ",
"              .XX.              ",
"              .XX.              ",
"              .XX.              ",
"              .XX.              ",
"              .XX.              ",
"               ..               "};
