/* XPM */
static char * bar_lu_xpm[] = {
"32 32 3 1",
" 	c None",
".	c #FFFFFF",
"+	c #888888",
"               ..               ",
"              .++.              ",
"              .++.              ",
"              .++.              ",
"              .++.              ",
"              .++.              ",
"              .++.              ",
"              .++.              ",
"              .++.              ",
"              .++.              ",
"              .++.              ",
"              .++.              ",
"              .++.              ",
"              .++.              ",
" ..............++.              ",
".++++++++++++++++.              ",
".++++++++++++++++.              ",
" .................              ",
"                                ",
"                                ",
"                                ",
"                                ",
"                                ",
"                                ",
"                                ",
"                                ",
"                                ",
"                                ",
"                                ",
"                                ",
"                                ",
"                                "};
