/* XPM */
static char * scratch[] = {
"32 32 6 1",
" 	c white",
".	c gray95",
"X	c gray90",
"o	c gray60",
"O	c black",
"+	c gray50",
" ...............................",
"X .............................o",
"XX ...........................oo",
"XXX .........................ooo",
"XXXX .......................oooo",
"XXXXX .....................ooooo",
"XXXXXX ...................oooooo",
"XXXXXXX .................ooooooo",
"XXXXXXXX ...............oooooooo",
"XXXXXXXXX .............ooooooooo",
"XXXXXXXXXX ...........oooooooooo",
"XXXXXXXXXXX .........ooooooooooo",
"XXXXXXXXXXXX .......oooooooooooo",
"XXXXXXXXXXXXX .....ooooooooooooo",
"XXXXXXXXXXXXXX ...oooooooooooooo",
"XXXXXXXXXXXXXXX .ooooooooooooooo",
"XXXXXXXXXXXXXXXXOooooooooooooooo",
"XXXXXXXXXXXXXXX++Ooooooooooooooo",
"XXXXXXXXXXXXXX++++Oooooooooooooo",
"XXXXXXXXXXXXX++++++Ooooooooooooo",
"XXXXXXXXXXXX++++++++Oooooooooooo",
"XXXXXXXXXXX++++++++++Ooooooooooo",
"XXXXXXXXXX++++++++++++Oooooooooo",
"XXXXXXXXX++++++++++++++Ooooooooo",
"XXXXXXXX++++++++++++++++Oooooooo",
"XXXXXXX++++++++++++++++++Ooooooo",
"XXXXXX++++++++++++++++++++Oooooo",
"XXXXX++++++++++++++++++++++Ooooo",
"XXXX++++++++++++++++++++++++Oooo",
"XXX++++++++++++++++++++++++++Ooo",
"XX++++++++++++++++++++++++++++Oo",
"X++++++++++++++++++++++++++++++O"};
