/* XPM */
static char * wall2_xpm[] = {
"32 32 8 1",
" 	c gray95",
".	s None	c None",
"X	c gray70",
"o	c black",
"O	c gray35",
"+	c gray50",
"@	c gray80",
"#	c gray90",
"                               .",
" XXXXXXXXXXXXXXXXXXXXXXXXXXXXXXo",
" XXXXXXXXXXXXXXXXXXXXXXXXXXXXXXo",
" XXXXXXXXXXXXXXXXXXXXXXXXXXXXXXo",
" XXXO++++++++++++++++++++++ XXXo",
" XXX@O+++++++++++++++++++++ XXXo",
" XXX@@O+++++++++++++++++++# XXXo",
" XXX@@@O+++++++++++++++++## XXXo",
" XXX@@@@O+++++++++++++++### XXXo",
" XXX@@@@@O+++++++++++++#### XXXo",
" XXX@@@@@@O+++++++++++##### XXXo",
" XXX@@@@@@@O+++++++++###### XXXo",
" XXX@@@@@@@@O+++++++####### XXXo",
" XXX@@@@@@@@@O+++++######## XXXo",
" XXX@@@@@@@@@@O+++######### XXXo",
" XXX@@@@@@@@@@@O+########## XXXo",
" XXX@@@@@@@@@@@@@########## XXXo",
" XXX@@@@@@@@@@@  @######### XXXo",
" XXX@@@@@@@@@@    @######## XXXo",
" XXX@@@@@@@@@      @####### XXXo",
" XXX@@@@@@@@        @###### XXXo",
" XXX@@@@@@@          @##### XXXo",
" XXX@@@@@@            @#### XXXo",
" XXX@@@@@              @### XXXo",
" XXX@@@@                @## XXXo",
" XXX@@@                  @# XXXo",
" XXX@@                    @ XXXo",
" XXX                        XXXo",
" XXXXXXXXXXXXXXXXXXXXXXXXXXXXXXo",
" XXXXXXXXXXXXXXXXXXXXXXXXXXXXXXo",
" XXXXXXXXXXXXXXXXXXXXXXXXXXXXXXo",
".ooooooooooooooooooooooooooooooo"};
