/* XPM */
static char * wall_xpm[] = {
"32 32 3 1",
" 	c gray70",
".	s None	c None",
"X	c black",
"                              ..",
"                              X.",
"                              XX",
"                              XX",
"                              XX",
"                              XX",
"                              XX",
"                              XX",
"                              XX",
"                              XX",
"                              XX",
"                              XX",
"                              XX",
"                              XX",
"                              XX",
"                              XX",
"                              XX",
"                              XX",
"                              XX",
"                              XX",
"                              XX",
"                              XX",
"                              XX",
"                              XX",
"                              XX",
"                              XX",
"                              XX",
"                              XX",
"                              XX",
"                              XX",
".XXXXXXXXXXXXXXXXXXXXXXXXXXXXXXX",
"..XXXXXXXXXXXXXXXXXXXXXXXXXXXXXX"};
