/* XPM */
static char * icon_xpm[] = {
"64 64 13 1",
" 	s None	c None",
".	c #E0E0F0F0FFFF",
"X	c black",
"o	c #8080A0A0D0D0",
"O	c #D0D0E0E0D0D0",
"+	c #E0E0F0F0E0E0",
"@	c #E0E0E0E0C0C0",
"#	c #FFFFFFFFD0D0",
"$	c #C0C0D0D0F0F0",
"%	c #E0E0D0D0D0D0",
"&	c #FFFFE0E0E0E0",
"*	c #C0C0D0D0C0C0",
"=	c #E0E0C0C0C0C0",
"                                                                ",
"                                                                ",
"                                                                ",
"                                                                ",
"                                                                ",
"                                                                ",
"                                                                ",
"                                                                ",
"                                                                ",
"                                                                ",
"                                                                ",
"                                                                ",
"                                                                ",
"                                                                ",
"                                                                ",
"                                                                ",
"                                                                ",
"                                                                ",
"                                                                ",
"                                                                ",
"                                                                ",
"     ...........................................                ",
"     ...........................................                ",
"     ...........................................                ",
"     .....XXXXo.................................O+++            ",
"     .....XX.oXo................................O+++            ",
"     .....XX..XX................................O+++            ",
"     .....XX..XX................................O+++@###        ",
"     .....XX..XX...................XX...........O+++@###        ",
"     .....XX.oXo............XX.....XX..XX.......O+++@###        ",
"     .....XXXXo$XXX$.$XXX$..XX.........XX.......O+++@###%&&&    ",
"     .....XX...XX.XX.XX.XX.XXXX....XX.XXXX......O+++@###%&&&    ",
"     .....XX...XX.XX.XX.....XX.....XX..XX.......O+++@###%&&&    ",
"     .....XX...XX.XX.$oXo$..XX.....XX..XX.......O+++@###%&&&    ",
"     .....XX...XX.XX....XX..XX.....XX..XX.......O+++@###%&&&    ",
"     .....XX...XX.XX.XX.XX..XX.....XX..XX.......O+++@###%&&&    ",
"     .....XX...$XXX$.$XXX$..$XX....XX..$XX......O+++@###%&&&    ",
"     .......................................$$$$O+++@###%&&&    ",
"     .......................................$$$O++++@###%&&&    ",
"     .......................................$$O+++++@###%&&&    ",
"     .......................................$O++****@###%&&&    ",
"         OOOOOOOOOOOOOOOOOOOOOOOOOOOOOOOOOOOO+++***@####%&&&    ",
"         +++++++++++++++++++++++++++++++++++++++**@#####%&&&    ",
"         +++++++++++++++++++++++++++++++++++++++*@##@@@@%&&&    ",
"             @@@@@@@@@@@@@@@@@@@@@@@@@@@@@@@@@@@@###@@@%&&&&    ",
"             #######################################@@%&&&&&    ",
"             #######################################@%&&====    ",
"                 %%%%%%%%%%%%%%%%%%%%%%%%%%%%%%%%%%%%&&&===     ",
"                 &&&&&&&&&&&&&&&&&&&&&&&&&&&&&&&&&&&&&&&==      ",
"                 &&&&&&&&&&&&&&&&&&&&&&&&&&&&&&&&&&&&&&&=       ",
"                                                                ",
"                                                                ",
"                                                                ",
"                                                                ",
"                                                                ",
"                                                                ",
"                                                                ",
"                                                                ",
"                                                                ",
"                                                                ",
"                                                                ",
"                                                                ",
"                                                                ",
"                                                                "};
