/* XPM */
static char * closed_ticket_xpm[] = {
"16 16 5 1",
" 	s None	c None",
".	c black",
"X	c white",
"o	c red",
"O	c gray",
"                ",
"                ",
"                ",
".......... .....",
".XXXXXXXX. .XXX.",
".XoXXXXoXX XXXX.",
".XXoXXoXX. .XXX.",
".XXXooXXXX XXXX.",
".XXXooXXX. .XXX.",
".XXoXXoXXX XXXX.",
".XoXXXXoX. .XXX.",
".XXXXXXXXX XX...",
".XXXXXXXX. .X.O ",
".......... ...  ",
"                ",
"                "};
