/* XPM */
static char * live_ticket_xpm[] = {
"16 16 4 1",
" 	s None	c None",
".	c black",
"X	c white",
"o	c gray",
"                ",
"                ",
"                ",
"                ",
"                ",
"                ",
"................",
".XXXXXXXXX.XXXX.",
".XXXXXXXXXXXXXX.",
".XXXXXXXXX.XXXX.",
".XXXXXXXXXXXXXX.",
".XXXXXXXXX.XXXX.",
".XXXXXXXXXXXX...",
".XXXXXXXXX.XX.o ",
"..............  ",
"                "};
