/* XPM */
static char * ticket_xpm[] = {
"48 32 6 1",
" 	s None	c None",
".	c red",
"X	c black",
"o	c darkred",
"O	c white",
"+	c gray80",
"   .....                                        ",
"  .......                                       ",
" ..    ...                                      ",
".. XXXo...oXXXXXXXXXXXXXXXXXXXXXXXX             ",
".. XO...O..OOOOOOOOOOOOOOOOOOOOOOOX             ",
".. X...OX..XXXOXXXOXXXOOOXOOOOOOOOX             ",
".. o..XXX..XOXOXOXOXOXOOOXOOOOOOOOX             ",
".....OXOX..XXXOXXXOXXXOOOOOOOOOOOOX             ",
" ...OXXX..OOOXOOOXOOOXOOOXOOOOOOOOX             ",
"  .......OOXXXOXXXOXXXOOOXOOOOOOOOX             ",
"   o....OOOOOOOOOOOOOOOOOOOOOOOOOOX             ",
"   XOOOOOOOOOOOOOOOOOOOOOXOOOOOOOOX             ",
"   XOOOOOOOOOOOOOOOOOOOOOXOOOOOOOOX             ",
"   XOOOOOOOOOOOOOOOOOOOOOOOOOOOOOOX             ",
"   XOOOOOOOOOOOOOOOOOOOOOXOOOOOXXXX             ",
"   XOOOOOOOOOOOOOOOOOOOOOXOOOOOX++              ",
"   XOOOOOOOOOOOOOOOOOOOOOOOOOOOX+               ",
"   XXXXXXXXXXXXXXXXXXXXXXXXXXXXX                ",
"                                                ",
"                                                ",
"                                                ",
"                                                ",
"                                                ",
"                                                ",
"                                                ",
"                                                ",
"                                                ",
"                                                ",
"                                                ",
"                                                ",
"                                                ",
"                                                "};
