/* XPM */
static char * tickets_xpm[] = {
"48 32 6 1",
" 	s None	c None",
".	c red",
"X	c black",
"o	c darkred",
"O	c white",
"+	c gray80",
"   .....                                        ",
"  .......                                       ",
" ..    ...                                      ",
".. XXXo...oXXXXXXXXXXXXXXXXXXXXXXXX             ",
".. XO...O..OOOOOOOOOOOOOOOOOOOOOOOX             ",
".. X...OX..XXXOXXXOXXXOOOXOOOOOOOOXXX           ",
".. o..XXX..XOXOXOXOXOXOOOXOOOOOOOOX X           ",
".....OXOX..XXXOXXXOXXXOOOOOOOOOOOOX XXX         ",
" ...OXXX..OOOXOOOXOOOXOOOXOOOOOOOOX XOX         ",
"  .......OOXXXOXXXOXXXOOOXOOOOOOOOX XOX         ",
"   o....OOOOOOOOOOOOOOOOOOOOOOOOOOX XOX         ",
"   XOOOOOOOOOOOOOOOOOOOOOXOOOOOOOOX XOX         ",
"   XOOOOOOOOOOOOOOOOOOOOOXOOOOOOOOXOXOX         ",
"   XOOOOOOOOOOOOOOOOOOOOOOOOOOOOOOXOXOX         ",
"   XOOOOOOOOOOOOOOOOOOOOOXOOOOOXXXXOXOX         ",
"   XOOOOOOOOOOOOOOOOOOOOOXOOOOOX++OOXOX         ",
"   XOOOOOOOOOOOOOOOOOOOOOOOOOOOX++XXXOX         ",
"   XXXXXXXXXXXXXXXXXXXXXXXXXXXXXOX++OOX         ",
"     XOOOOOOOOOOOOOOOOOOOOOOOOOOOX++XXX         ",
"     XXXXXXXXXXXXXXXXXXXXXXXXXXXXXOX++          ",
"       XOOOOOOOOOOOOOOOOOOOOOOOOOOOX+           ",
"       XXXXXXXXXXXXXXXXXXXXXXXXXXXXX            ",
"                                                ",
"                                                ",
"                                                ",
"                                                ",
"                                                ",
"                                                ",
"                                                ",
"                                                ",
"                                                ",
"                                                "};
