/* XPM */
static char * line_dotted_1_xpm[] = {
"32 8 2 1",
" 	s None	c None",
".	c black",
"                                ",
"                                ",
"                                ",
"..    ....    ....    ....    ..",
"                                ",
"                                ",
"                                ",
"                                "};
