/* XPM */
static char * scratch[] = {
"80 80 2 1",
" 	c black",
".	c white",
"       ....  ...       .       .  ...  .       .       .       .       .       .",
"       ....  ...       .       .  ...  .       .       .       .       .       .",
"  ...  ....  ........  ......  .  ...  .  ......  ...........  .  ...  .  ...  .",
"  ...  ....  ........  ......  .  ...  .  ......  ...........  .  ...  .  ...  .",
"  ...  ....  ...       .       .       .       .       ......  .       .       .",
"  ...  ....  ...       .       .       .       .       ......  .       .       .",
"  ...  ....  ...  ...........  ......  ......  .  ...  ......  .  ...  ......  .",
"  ...  ....  ...  ...........  ......  ......  .  ...  ......  .  ...  ......  .",
"       ....  ...       .       ......  .       .       ......  .       ......  .",
"       ....  ...       .       ......  .       .       ......  .       ......  .",
"................................................................................",
"................................................................................",
".     ..      ...     ..      ..       .       ..     ..  ...  ...    .......  .",
"       .       .       .       .       .       .       .  ...  ...    .......  .",
"  ...  .  ...  .  ...  .  ...  .  ......  ......  ...  .  ...  ....  ........  .",
"  ...  .  ...  .  ...  .  ...  .  ......  ......  ...  .  ...  ....  ........  .",
"  ...  .      ..  ......  ...  .       .      ..  ......       ....  ........  .",
"       .      ..  ......  ...  .       .      ..  ......       ....  ........  .",
"       .  ...  .  ...  .  ...  .  ......  ......  ...  .  ...  ....  ...  ...  .",
"  ...  .  ...  .  ...  .  ...  .  ......  ......  ...  .  ...  ....  ...  ...  .",
"  ...  .       .       .       .       .  ......       .  ...  ...    ..       .",
"  ...  .      ...     ..      ..       .  .......      .  ...  ...    ...     ..",
"................................................................................",
"................................................................................",
"  ...  .  ......  ...  .  ...  ..     ..      ...     ..      ...     ...      .",
"  ..   .  ......   .   .  ...  .       .       .       .       .       ..      .",
"  .   ..  ......       .   ..  .  ...  .  ...  .  ...  .  ...  .  ...  ....  ...",
"     ...  ......       .    .  .  ...  .  ...  .  ...  .  ...  .  .........  ...",
"    ....  ......  . .  .       .  ...  .       .  ...  .       .      .....  ...",
"    ....  ......  ...  .  .    .  ...  .      ..  .    .      ...      ....  ...",
"     ...  ......  ...  .  ..   .  ...  .  ......  .    .     ........  ....  ...",
"  .   ..  ......  ...  .  ...  .  ...  .  ......  ..   .  .   ..  ...  ....  ...",
"  ..   .       .  ...  .  ...  .       .  ......       .  ..   .       ....  ...",
"  ...  .       .  ...  .  ...  ..     ..  .......      .  ...  ..     .....  ...",
"................................................................................",
"................................................................................",
"  ...  .  ...  .  ...  .  ...  ..  ..  .       .       .       .       .       .",
"  ...  .  ...  .  ...  .   .   ..  ..  .       .       .       .       .       .",
"  ...  .  ...  .  ...  ..  .  ...  ..  .....   .  ...  .  ...  .  ...  .  ...  .",
"  ...  .  ...  .  ...  ..     ...  ..  ....   ..  ...  .  ...  .  ...  .  ...  .",
"  ...  .  ...  .  ...  ...   ....      ...   ...       .       .       .       .",
"  ...  .  ...  .  . .  ...   .....    ...   ....       .       .       .       .",
"  ...  .   .   .       ..     .....  ...   .....  ...  .  ...  .  ...  .  ...  .",
"  ...  ..     ..       ..  .  .....  ...  ......  ...  .  ...  .  ...  .  ...  .",
"       ...   ...   .   .   .   ....  ...       .       .       .       .       .",
".     ..... ....  ...  .  ...  ....  ...       .       .       .       .       .",
"................................................................................",
"................................................................................",
"       .       .       .       .       .       .       .       .       .       .",
"       .       .       .       .       .       .       .       .       .       .",
"  ...  .  ...  .  ...  .  ...  .  ...  .  ...  .  ...  .  ...  .  ...  .  ...  .",
"  ...  .  ...  .  ...  .  ...  .  ...  .  ...  .  ...  .  ...  .  ...  .  ...  .",
"       .       .       .       .       .       .       .       .       .       .",
"       .       .       .       .       .       .       .       .       .       .",
"  ...  .  ...  .  ...  .  ...  .  ...  .  ...  .  ...  .  ...  .  ...  .  ...  .",
"  ...  .  ...  .  ...  .  ...  .  ...  .  ...  .  ...  .  ...  .  ...  .  ...  .",
"       .       .       .       .       .       .       .       .       .       .",
"       .       .       .       .       .       .       .       .       .       .",
"................................................................................",
"................................................................................",
"       .       .       .       .       .       .       .       .       .       .",
"       .       .       .       .       .       .       .       .       .       .",
"  ...  .  ...  .  ...  .  ...  .  ...  .  ...  .  ...  .  ...  .  ...  .  ...  .",
"  ...  .  ...  .  ...  .  ...  .  ...  .  ...  .  ...  .  ...  .  ...  .  ...  .",
"       .       .       .       .       .       .       .       .       .       .",
"       .       .       .       .       .       .       .       .       .       .",
"  ...  .  ...  .  ...  .  ...  .  ...  .  ...  .  ...  .  ...  .  ...  .  ...  .",
"  ...  .  ...  .  ...  .  ...  .  ...  .  ...  .  ...  .  ...  .  ...  .  ...  .",
"       .       .       .       .       .       .       .       .       .       .",
"       .       .       .       .       .       .       .       .       .       .",
"................................................................................",
"................................................................................",
"       .       .       .       .       .       .       .       .       .       .",
"       .       .       .       .       .       .       .       .       .       .",
"  ...  .  ...  .  ...  .  ...  .  ...  .  ...  .  ...  .  ...  .  ...  .  ...  .",
"  ...  .  ...  .  ...  .  ...  .  ...  .  ...  .  ...  .  ...  .  ...  .  ...  .",
"       .       .       .       .       .       .       .       .       .       .",
"       .       .       .       .       .       .       .       .       .       .",
"  ...  .  ...  .  ...  .  ...  .  ...  .  ...  .  ...  .  ...  .  ...  .  ...  .",
"  ...  .  ...  .  ...  .  ...  .  ...  .  ...  .  ...  .  ...  .  ...  .  ...  ."};
