/* XPM */
static char * pad_xpm[] = {
"64 64 2 1",
" 	s None	c None",
".	c black",
"                      ....................                      ",
"                     .                    .                     ",
"                    .                      .                    ",
"                    .                      .                    ",
"                    .                      .                    ",
"                    .                      .                    ",
"                    .                      .                    ",
"                    .                      .                    ",
"                    .                      .                    ",
"                    .                      .                    ",
"                    .                      .                    ",
"                    .                      .                    ",
"                    .                      .                    ",
"                    .                      .                    ",
"                    .                      .                    ",
"                    .                      .                    ",
"                    .                      .                    ",
"                    .                      .                    ",
"                     .                    .                     ",
"                      .                  .                      ",
"  ................     .                .     ................  ",
" .                .     .              .     .                . ",
".                  .     .            .     .                  .",
".                   .     .          .     .                   .",
".                    .     .        .     .                    .",
".                     .     ........     .                     .",
".                      .                .                      .",
".                       .              .                       .",
".                        .            .                        .",
".                        .            .                        .",
".                        .            .                        .",
".                        .            .                        .",
".                        .            .                        .",
".                        .            .                        .",
".                        .            .                        .",
".                        .            .                        .",
".                       .              .                       .",
".                      .                .                      .",
".                     .     ........     .                     .",
".                    .     .        .     .                    .",
".                   .     .          .     .                   .",
".                  .     .            .     .                  .",
" .                .     .              .     .                . ",
"  ................     .                .     ................  ",
"                      .                  .                      ",
"                     .                    .                     ",
"                    .                      .                    ",
"                    .                      .                    ",
"                    .                      .                    ",
"                    .                      .                    ",
"                    .                      .                    ",
"                    .                      .                    ",
"                    .                      .                    ",
"                    .                      .                    ",
"                    .                      .                    ",
"                    .                      .                    ",
"                    .                      .                    ",
"                    .                      .                    ",
"                    .                      .                    ",
"                    .                      .                    ",
"                    .                      .                    ",
"                    .                      .                    ",
"                     .                    .                     ",
"                      ....................                      "};
