/* XPM */
static char * attack_tn_xpm[] = {
"144 48 6 1",
" 	s None	c None",
".	c white",
"X	c gray70",
"o	c gray80",
"O	c black",
"+	c gray50",
"                                                                                                                                                ",
"                                                                                                                                                ",
"       ...                                               X                                             ...                                      ",
"     ......                                           o   X                                          ......                                     ",
"    ....O...                                            o  X                                        ....O...                                    ",
"   ......O..+.                                     o o      X                                      ......O..+.                                  ",
"   ...O...O.+.                                     .    o o  X                                     ...O...O.+.                                  ",
"  .....O...O+.                                      o o     X X                                   .....O...O+.                                  ",
"  ......O..+..                                           o o X X                                  ......O..+..                                  ",
"  ...O...O+..                                     X  o o    X X X                                 ...O...O+..                                   ",
"   ...O... .                                       X     o X X X X                                 ...O... .                                    ",
"    ... .                                           X o   X X X X X                                 ... .                                       ",
"     ..                                              X X X X X X X X                                 ..                                         ",
"                                                      X X X X X X X X                                                                           ",
"                                                       X X X X X X X X                                                                          ",
"                                                        X X X X X X X X                                                                         ",
"                                                         X X X X X X X X                                                                        ",
"                                                          X X X X X X X o                                                                       ",
"                                                           X X X X X X o o                                                                      ",
"                                                            X X X X X o o o                                                                     ",
"                                                             X X X X o o o o                                                                    ",
"                                                              X X X o o o o o                                                                   ",
"                                                               X X o o o o o o                                                                  ",
"                                                                X o o o o o o o                                                                 ",
"                                                                 o o o o o o o .                                                                ",
"                                                                  o o o o o o . .                                                               ",
"                                                                   o o o o o . . .                                                              ",
"                                                                    o o o o . . . .                                                             ",
"                                                                     o o o . . . . .                                                            ",
"                                                                      o o . . . . . .                                                           ",
"                                                                       o . . . . . ...                                                          ",
"                                   ..                                   . . . . . .....                                            ..           ",
"                                  ....                                   . . . . .......                                          ....          ",
"                                 ......                                   . . . .........                                        ......         ",
"                                ...........                                . . ...........                                      ...........     ",
"                               .............                                . .............                                    .............    ",
"                               ..............                                ...............                                   ..............   ",
"                                ..............                                ...............                                   ..............  ",
"                                 .............                                 ...............                                   .............  ",
"                                  ............                                  ..............                                    ............  ",
"                                  ..........X                                    ...........X                                     ..........X   ",
"                                   .........                                      ..........                                       .........    ",
"                                    ......X                                        .......X                                         ......X     ",
"                                     .....                                          ......                                           .....      ",
"                                      ..X                                            ...X                                             ..X       ",
"                                                                                                                                                ",
"                                                                                                                                                ",
"                                                                                                                                                "};
