/* XPM */
static char * attack_wa_xpm[] = {
"96 128 6 1",
" 	c white",
".	s None	c None",
"X	c gray80",
"o	c gray70",
"O	c gray90",
"+	c gray95",
" ...............................................................................................",
"X ..............................................................................................",
".X ..............................o..............................................................",
"..X .............................Oo.............................................................",
"...X .............................Oo............................................................",
"....X .............................Oo...........................................................",
".....X .............................Oo..........................................................",
"......X .............................OX.........................................................",
".......X o............................O ........................................................",
"........oo.............................O .......................................................",
".......o.oo.............................O ......................................................",
"..........oo.............................O .....................................................",
"..........................................O ....................................................",
"...........................................O ...................................................",
"............................................O ..................................................",
".............................................O .................................................",
"..............................................O ................................................",
"...............................................O ...............................................",
"................................................O ..............................................",
".................................................O ................................X............",
"..................................................O ...............................XX...........",
"...................................................O ...............................XX..........",
"....................................................  ...............................Xoo........",
".....................................................  ...............................o ........",
"......................................................  .............................o.X .......",
".......................................................  ...............................X ......",
"........................................................  ...............................X .....",
".........................................................  ...............................X ....",
"..........................................................  ...............................X ...",
"...........................................................  ...............................X ..",
"............................................................  ...............................X .",
".............................................................. ...............................X ",
"......... ......................................................................................",
"........ O......................................................................................",
"........ .......................................................................................",
".......O ..............................o........................................................",
".......  .............................o.........................................................",
"....... X............................oo.........................................................",
"....... X...........................oo..........................................................",
"....... X..........................ooo..........................................................",
"....... X..........................ooo..........................................................",
"....... X.........................ooo...........................................................",
"....... X.........................ooo...........................................................",
"....... X........................oXXo...........................................................",
"......oooo.......................oXXo...........................................................",
".......oo........................oXXo...........................................................",
".......oo.......................oXXXo...........................................................",
".......oo.......................oXXXo...........................................................",
".......oo.......................oOOOo...........................................................",
"................................oOOOo...........................................................",
"................................o+++o........................................X..................",
"................................o++++o......................................XX..................",
"................................o++++o...................................o.XX...................",
"................................o+++++o...................................oX....................",
"................................o+++ ++oo................................  o....................",
".................................o+ + ++oooo............................  ......................",
".................................o + +    o............................  .......................",
".................................o+ +    o............................  ........................",
"..................................o+    o............................  .........................",
"..................................o    o............................  ..........................",
"...................................o  o............................  ...........................",
"...................................o o...........................   ............................",
"....................................o...........................................................",
"..................... ..........................................................................",
".....................O .........................................................................",
"...................... .........................................................................",
"...................... O........................................................................",
"......................  ................................o.......................................",
"......................X .................................o......................................",
"......................X .................................oo.....................................",
"......................X ..................................oo....................................",
"......................X ..................................ooo...................................",
"......................X ..................................ooo...................................",
"......................X ...................................ooo..................................",
"......................X ...................................ooo..................................",
".....................oooo..................................oXXo.................................",
"......................oo...................................oXXo.................................",
"......................oo...................................oXXo.................................",
"......................oo...................................oXXXo................................",
"......................oo...................................oXXXo................................",
"...........................................................oOOOo................................",
"...........................................................oOOOo................................",
"...........................................................o+++o................................",
"..........................................................o++++o.................X..............",
"..........................................................o++++o.................XX.............",
".........................................................o+++++o..................XX.o..........",
".......................................................oo++ +++o...................Xo...........",
"....................................................oooo++ + +o....................o  ..........",
".....................................................o    + + o......................  .........",
"......................................................o    + +o.......................  ........",
".......................................................o    +o.........................  .......",
"........................................................o    o..........................  ......",
".........................................................o  o............................  .....",
"..........................................................o o.............................  ....",
"...........................................................o...............................   ..",
"................................................................................................",
"............................... ................................................................",
".............................. X................................................................",
"............................. X..............................o..................................",
"............................ X..............................oO..................................",
"........................... X..............................oO...................................",
".......................... X..............................oO....................................",
"......................... X..............................oO.....................................",
"........................ X..............................XO......................................",
"......................o X.............................. O.......................................",
"......................oo.............................. O........................................",
".....................oo.o............................ O.........................................",
"....................oo.............................. O..........................................",
"................................................... O...........................................",
".................................................. O............................................",
"................................................. O.............................................",
"................................................ O..............................................",
"............................................... O...............................................",
".............................................. O................................................",
"............................................. O.................................................",
"............................................ O...............................X..................",
"........................................... O...............................XX..................",
".......................................... O...............................XX...................",
".........................................  ..............................ooX....................",
"........................................  ............................... o.....................",
".......................................  ............................... X.o....................",
"......................................  ............................... X.......................",
".....................................  ............................... X........................",
"....................................  ............................... X.........................",
"...................................  ............................... X..........................",
"..................................  ............................... X...........................",
".................................  ............................... X............................",
"................................ ................................ X............................."};
