/* XPM */
static char * boxmark_xpm[] = {
"32 32 5 1",
" 	c yellow",
".	c orange",
"X	s None	c None",
"o	c #8888FFFF0000",
"O	c #0000DDDDFFFF",
"                ................",
"                ................",
"  XXXXXXXXXXXX  ..XXXXXXXXXXXX..",
"  XXXXXXXXXXXX  ..XXXXXXXXXXXX..",
"  XXXXXXXXXXXX  ..XXXXXXXXXXXX..",
"  XXXXXXXXXXXX  ..XXXXXXXXXXXX..",
"  XXXXXXXXXXXX  ..XXXXXXXXXXXX..",
"  XXXXXXXXXXXX  ..XXXXXXXXXXXX..",
"  XXXXXXXXXXXX  ..XXXXXXXXXXXX..",
"  XXXXXXXXXXXX  ..XXXXXXXXXXXX..",
"  XXXXXXXXXXXX  ..XXXXXXXXXXXX..",
"  XXXXXXXXXXXX  ..XXXXXXXXXXXX..",
"  XXXXXXXXXXXX  ..XXXXXXXXXXXX..",
"  XXXXXXXXXXXX  ..XXXXXXXXXXXX..",
"                ................",
"                ................",
"ooooooooooooooooOOOOOOOOOOOOOOOO",
"ooooooooooooooooOOOOOOOOOOOOOOOO",
"ooXXXXXXXXXXXXooOOXXXXXXXXXXXXOO",
"ooXXXXXXXXXXXXooOOXXXXXXXXXXXXOO",
"ooXXXXXXXXXXXXooOOXXXXXXXXXXXXOO",
"ooXXXXXXXXXXXXooOOXXXXXXXXXXXXOO",
"ooXXXXXXXXXXXXooOOXXXXXXXXXXXXOO",
"ooXXXXXXXXXXXXooOOXXXXXXXXXXXXOO",
"ooXXXXXXXXXXXXooOOXXXXXXXXXXXXOO",
"ooXXXXXXXXXXXXooOOXXXXXXXXXXXXOO",
"ooXXXXXXXXXXXXooOOXXXXXXXXXXXXOO",
"ooXXXXXXXXXXXXooOOXXXXXXXXXXXXOO",
"ooXXXXXXXXXXXXooOOXXXXXXXXXXXXOO",
"ooXXXXXXXXXXXXooOOXXXXXXXXXXXXOO",
"ooooooooooooooooOOOOOOOOOOOOOOOO",
"ooooooooooooooooOOOOOOOOOOOOOOOO"};
