/* XPM */
static char * scratch[] = {
"16 16 2 1",
" 	s None	c None",
".	c black",
"                ",
"    .           ",
"                ",
"  .             ",
"                ",
" .    ....      ",
"     ..  ..     ",
" .  ..    .     ",
"  . .    ..     ",
"  ...   ..      ",
"   ......       ",
"    ..          ",
"     ..         ",
"      ...       ",
"        ......  ",
"                "};
