/* XPM */
static char * closed_ticket_xpm[] = {
"16 16 5 1",
" 	s None	c None",
".	c black",
"X	c white",
"o	c red",
"O	c gray",
"                ",
"                ",
"                ",
"                ",
".......... .....",
".XXXXXXXXX XXXX.",
".XoXXXXoX. .XXX.",
".XXoXXoXXX XXXX.",
".XXXooXXX. .XXX.",
".XXXooXXXX XXXX.",
".XXoXXoXX. .XXX.",
".XoXXXXoXX XX...",
".XXXXXXXX. .X.O ",
".......... ...  ",
"                ",
"                "};
