/* XPM */
static char * corner_xpm[] = {
"8 8 2 1",
" 	s None	c None",
".	c gray88",
"        ",
"        ",
"        ",
"       .",
"    ....",
"    ... ",
"    ... ",
"   ..   "};
