/* XPM */
static char * scratch[] = {
"16 16 7 1",
" 	c #444400000000",
".	s None	c None",
"X	c #FFFFEEEEEEEE",
"o	c #444444440000",
"O	c #FFFFFFFFAAAA",
"+	c #000044440000",
"@	c #DDDDFFFFDDDD",
"            ....",
" XXXXXX XXX ....",
" XXXXXXXXXX ....",
" XXXXXX XXX oo..",
" XXXXXXXXXX Oo..",
" XXXXXX XXX Oo..",
" XXXXXXXX   Ooo+",
" XXXXXX X  OOo@+",
"          OOOo@+",
"..oOOOOOOOOooo@+",
"..oOOOOOOoOoo@@+",
"..oooooooooo@@@+",
"....+@@@@@@@@+++",
"....+@@@@@@+@++.",
"....++++++++++..",
"................"};
