/* XPM */
static char * tickets_xpm[] = {
"48 32 4 1",
" 	s None	c None",
".	c black",
"X	c white",
"o	c gray80",
"                                                ",
"                                                ",
"                                                ",
"   ................................             ",
"   .XXXXXXXXXXXXXXXXXXXXXXXXXXXXXX.             ",
"   .XX.X.XX...X...X...XXX.XXXXXXXX...           ",
"   .X.....X.X.X.X.X.X.XXX.XXXXXXXX. .           ",
"   .XX.X.XX...X...X...XXXXXXXXXXXX. ...         ",
"   .X.....XXX.XXX.XXX.XXX.XXXXXXXX. .X.         ",
"   .XX.X.XX...X...X...XXX.XXXXXXXX. .X.         ",
"   .XXXXXXXXXXXXXXXXXXXXXXXXXXXXXX. .X.         ",
"   .XXXXXXXXXXXXXXXXXXXXX.XXXXXXXX. .X.         ",
"   .XXXXXXXXXXXXXXXXXXXXX.XXXXXXXX.X.X.         ",
"   .XXXXXXXXXXXXXXXXXXXXXXXXXXXXXX.X.X.         ",
"   .XXXXXXXXXXXXXXXXXXXXX.XXXXX....X.X.         ",
"   .XXXXXXXXXXXXXXXXXXXXX.XXXXX.ooXX.X.         ",
"   .XXXXXXXXXXXXXXXXXXXXXXXXXXX.oo...X.         ",
"   .............................X.ooXX.         ",
"     .XXXXXXXXXXXXXXXXXXXXXXXXXXX.oo...         ",
"     .............................X.oo          ",
"       .XXXXXXXXXXXXXXXXXXXXXXXXXXX.o           ",
"       .............................            ",
"                                                ",
"                                                ",
"                                                ",
"                                                ",
"                                                ",
"                                                ",
"                                                ",
"                                                ",
"                                                ",
"                                                "};
