/* XPM */
static char * li_mark_1_xpm[] = {
"12 12 2 1",
" 	s None	c None",
".	c black",
"            ",
"            ",
"            ",
"  ........  ",
"  ........  ",
"   ......   ",
"   ......   ",
"    ....    ",
"    ....    ",
"     ..     ",
"     ..     ",
"            "};
