/* XPM */
static char * foor_UD_xpm[] = {
"64 64 3 1",
" 	c gray88",
".	c gray94",
"X	c gray75",
"                                ................................",
"                                ................................",
"                                ................................",
"                                ................................",
"                               XX...............................",
"                              XXXX..............................",
"                             XXXXXX.............................",
"                            XXXXXXXX............................",
"                           XXXXXXXXXX...........................",
"                          XXXXXXXXXXXX..........................",
"                         XXXXXXXXXXXXXX.........................",
"                        XXXXXXXXXXXXXXXX........................",
"                       XXXXXXXXXXXXXXXXXX.......................",
"                           XXXXXXXXXX...........................",
"                           XXXXXXXXXX...........................",
"                           XXXXXXXXXX...........................",
"                           XXXXXXXXXX...........................",
"                           XXXXXXXXXX...........................",
"                           XXXXXXXXXX...........................",
"                           XXXXXXXXXX...........................",
"                                ................................",
"                                ................................",
"                                ................................",
"                                ................................",
"                                ................................",
"                                ................................",
"                                ................................",
"                                ................................",
"                                ................................",
"                                ................................",
"                                ................................",
"                                ................................",
"................................                                ",
"................................                                ",
"................................                                ",
"................................                                ",
"................................                                ",
"................................                                ",
"................................                                ",
"................................                                ",
"................................                                ",
"................................                                ",
"................................                                ",
"................................                                ",
"...........................XXXXXXXXXX                           ",
"...........................XXXXXXXXXX                           ",
"...........................XXXXXXXXXX                           ",
"...........................XXXXXXXXXX                           ",
"...........................XXXXXXXXXX                           ",
"...........................XXXXXXXXXX                           ",
"...........................XXXXXXXXXX                           ",
".......................XXXXXXXXXXXXXXXXXX                       ",
"........................XXXXXXXXXXXXXXXX                        ",
".........................XXXXXXXXXXXXXX                         ",
"..........................XXXXXXXXXXXX                          ",
"...........................XXXXXXXXXX                           ",
"............................XXXXXXXX                            ",
".............................XXXXXX                             ",
"..............................XXXX                              ",
"...............................XX                               ",
"................................                                ",
"................................                                ",
"................................                                ",
"................................                                "};
