/* XPM */
static char * foor_RL_xpm[] = {
"64 64 3 1",
" 	c gray88",
".	c gray94",
"X	c gray75",
"                                ................................",
"                                ................................",
"                                ................................",
"                                ................................",
"                                ................................",
"                                ................................",
"                                ................................",
"                                ................................",
"                                ................................",
"                                ................................",
"                                ................................",
"                                ................................",
"                                ................................",
"                                ................................",
"                                ................................",
"                                ................................",
"                                ................................",
"                                ................................",
"                                ................................",
"                                ................................",
"                                ................................",
"                                ................................",
"                                ................................",
"            X                   ...................X............",
"           XX                   ...................XX...........",
"          XXX                   ...................XXX..........",
"         XXXX                   ...................XXXX.........",
"        XXXXXXXXXXXX            ............XXXXXXXXXXXX........",
"       XXXXXXXXXXXXX            ............XXXXXXXXXXXXX.......",
"      XXXXXXXXXXXXXX            ............XXXXXXXXXXXXXX......",
"     XXXXXXXXXXXXXXX            ............XXXXXXXXXXXXXXX.....",
"    XXXXXXXXXXXXXXXX            ............XXXXXXXXXXXXXXXX....",
"....XXXXXXXXXXXXXXXX............            XXXXXXXXXXXXXXXX    ",
".....XXXXXXXXXXXXXXX............            XXXXXXXXXXXXXXX     ",
"......XXXXXXXXXXXXXX............            XXXXXXXXXXXXXX      ",
".......XXXXXXXXXXXXX............            XXXXXXXXXXXXX       ",
"........XXXXXXXXXXXX............            XXXXXXXXXXXX        ",
".........XXXX...................                   XXXX         ",
"..........XXX...................                   XXX          ",
"...........XX...................                   XX           ",
"............X...................                   X            ",
"................................                                ",
"................................                                ",
"................................                                ",
"................................                                ",
"................................                                ",
"................................                                ",
"................................                                ",
"................................                                ",
"................................                                ",
"................................                                ",
"................................                                ",
"................................                                ",
"................................                                ",
"................................                                ",
"................................                                ",
"................................                                ",
"................................                                ",
"................................                                ",
"................................                                ",
"................................                                ",
"................................                                ",
"................................                                ",
"................................                                "};
