/* XPM */
static char *gray_check[] = {
/* columns rows colors chars-per-pixel */
"64 64 2 1",
"o c gray88",
"x c gray94",
/* pixels */
"ooooooooooooooooooooooooooooooooxxxxxxxxxxxxxxxxxxxxxxxxxxxxxxxx",
"ooooooooooooooooooooooooooooooooxxxxxxxxxxxxxxxxxxxxxxxxxxxxxxxx",
"ooooooooooooooooooooooooooooooooxxxxxxxxxxxxxxxxxxxxxxxxxxxxxxxx",
"ooooooooooooooooooooooooooooooooxxxxxxxxxxxxxxxxxxxxxxxxxxxxxxxx",
"ooooooooooooooooooooooooooooooooxxxxxxxxxxxxxxxxxxxxxxxxxxxxxxxx",
"ooooooooooooooooooooooooooooooooxxxxxxxxxxxxxxxxxxxxxxxxxxxxxxxx",
"ooooooooooooooooooooooooooooooooxxxxxxxxxxxxxxxxxxxxxxxxxxxxxxxx",
"ooooooooooooooooooooooooooooooooxxxxxxxxxxxxxxxxxxxxxxxxxxxxxxxx",
"ooooooooooooooooooooooooooooooooxxxxxxxxxxxxxxxxxxxxxxxxxxxxxxxx",
"ooooooooooooooooooooooooooooooooxxxxxxxxxxxxxxxxxxxxxxxxxxxxxxxx",
"ooooooooooooooooooooooooooooooooxxxxxxxxxxxxxxxxxxxxxxxxxxxxxxxx",
"ooooooooooooooooooooooooooooooooxxxxxxxxxxxxxxxxxxxxxxxxxxxxxxxx",
"ooooooooooooooooooooooooooooooooxxxxxxxxxxxxxxxxxxxxxxxxxxxxxxxx",
"ooooooooooooooooooooooooooooooooxxxxxxxxxxxxxxxxxxxxxxxxxxxxxxxx",
"ooooooooooooooooooooooooooooooooxxxxxxxxxxxxxxxxxxxxxxxxxxxxxxxx",
"ooooooooooooooooooooooooooooooooxxxxxxxxxxxxxxxxxxxxxxxxxxxxxxxx",
"ooooooooooooooooooooooooooooooooxxxxxxxxxxxxxxxxxxxxxxxxxxxxxxxx",
"ooooooooooooooooooooooooooooooooxxxxxxxxxxxxxxxxxxxxxxxxxxxxxxxx",
"ooooooooooooooooooooooooooooooooxxxxxxxxxxxxxxxxxxxxxxxxxxxxxxxx",
"ooooooooooooooooooooooooooooooooxxxxxxxxxxxxxxxxxxxxxxxxxxxxxxxx",
"ooooooooooooooooooooooooooooooooxxxxxxxxxxxxxxxxxxxxxxxxxxxxxxxx",
"ooooooooooooooooooooooooooooooooxxxxxxxxxxxxxxxxxxxxxxxxxxxxxxxx",
"ooooooooooooooooooooooooooooooooxxxxxxxxxxxxxxxxxxxxxxxxxxxxxxxx",
"ooooooooooooooooooooooooooooooooxxxxxxxxxxxxxxxxxxxxxxxxxxxxxxxx",
"ooooooooooooooooooooooooooooooooxxxxxxxxxxxxxxxxxxxxxxxxxxxxxxxx",
"ooooooooooooooooooooooooooooooooxxxxxxxxxxxxxxxxxxxxxxxxxxxxxxxx",
"ooooooooooooooooooooooooooooooooxxxxxxxxxxxxxxxxxxxxxxxxxxxxxxxx",
"ooooooooooooooooooooooooooooooooxxxxxxxxxxxxxxxxxxxxxxxxxxxxxxxx",
"ooooooooooooooooooooooooooooooooxxxxxxxxxxxxxxxxxxxxxxxxxxxxxxxx",
"ooooooooooooooooooooooooooooooooxxxxxxxxxxxxxxxxxxxxxxxxxxxxxxxx",
"ooooooooooooooooooooooooooooooooxxxxxxxxxxxxxxxxxxxxxxxxxxxxxxxx",
"ooooooooooooooooooooooooooooooooxxxxxxxxxxxxxxxxxxxxxxxxxxxxxxxx",
"xxxxxxxxxxxxxxxxxxxxxxxxxxxxxxxxoooooooooooooooooooooooooooooooo",
"xxxxxxxxxxxxxxxxxxxxxxxxxxxxxxxxoooooooooooooooooooooooooooooooo",
"xxxxxxxxxxxxxxxxxxxxxxxxxxxxxxxxoooooooooooooooooooooooooooooooo",
"xxxxxxxxxxxxxxxxxxxxxxxxxxxxxxxxoooooooooooooooooooooooooooooooo",
"xxxxxxxxxxxxxxxxxxxxxxxxxxxxxxxxoooooooooooooooooooooooooooooooo",
"xxxxxxxxxxxxxxxxxxxxxxxxxxxxxxxxoooooooooooooooooooooooooooooooo",
"xxxxxxxxxxxxxxxxxxxxxxxxxxxxxxxxoooooooooooooooooooooooooooooooo",
"xxxxxxxxxxxxxxxxxxxxxxxxxxxxxxxxoooooooooooooooooooooooooooooooo",
"xxxxxxxxxxxxxxxxxxxxxxxxxxxxxxxxoooooooooooooooooooooooooooooooo",
"xxxxxxxxxxxxxxxxxxxxxxxxxxxxxxxxoooooooooooooooooooooooooooooooo",
"xxxxxxxxxxxxxxxxxxxxxxxxxxxxxxxxoooooooooooooooooooooooooooooooo",
"xxxxxxxxxxxxxxxxxxxxxxxxxxxxxxxxoooooooooooooooooooooooooooooooo",
"xxxxxxxxxxxxxxxxxxxxxxxxxxxxxxxxoooooooooooooooooooooooooooooooo",
"xxxxxxxxxxxxxxxxxxxxxxxxxxxxxxxxoooooooooooooooooooooooooooooooo",
"xxxxxxxxxxxxxxxxxxxxxxxxxxxxxxxxoooooooooooooooooooooooooooooooo",
"xxxxxxxxxxxxxxxxxxxxxxxxxxxxxxxxoooooooooooooooooooooooooooooooo",
"xxxxxxxxxxxxxxxxxxxxxxxxxxxxxxxxoooooooooooooooooooooooooooooooo",
"xxxxxxxxxxxxxxxxxxxxxxxxxxxxxxxxoooooooooooooooooooooooooooooooo",
"xxxxxxxxxxxxxxxxxxxxxxxxxxxxxxxxoooooooooooooooooooooooooooooooo",
"xxxxxxxxxxxxxxxxxxxxxxxxxxxxxxxxoooooooooooooooooooooooooooooooo",
"xxxxxxxxxxxxxxxxxxxxxxxxxxxxxxxxoooooooooooooooooooooooooooooooo",
"xxxxxxxxxxxxxxxxxxxxxxxxxxxxxxxxoooooooooooooooooooooooooooooooo",
"xxxxxxxxxxxxxxxxxxxxxxxxxxxxxxxxoooooooooooooooooooooooooooooooo",
"xxxxxxxxxxxxxxxxxxxxxxxxxxxxxxxxoooooooooooooooooooooooooooooooo",
"xxxxxxxxxxxxxxxxxxxxxxxxxxxxxxxxoooooooooooooooooooooooooooooooo",
"xxxxxxxxxxxxxxxxxxxxxxxxxxxxxxxxoooooooooooooooooooooooooooooooo",
"xxxxxxxxxxxxxxxxxxxxxxxxxxxxxxxxoooooooooooooooooooooooooooooooo",
"xxxxxxxxxxxxxxxxxxxxxxxxxxxxxxxxoooooooooooooooooooooooooooooooo",
"xxxxxxxxxxxxxxxxxxxxxxxxxxxxxxxxoooooooooooooooooooooooooooooooo",
"xxxxxxxxxxxxxxxxxxxxxxxxxxxxxxxxoooooooooooooooooooooooooooooooo",
"xxxxxxxxxxxxxxxxxxxxxxxxxxxxxxxxoooooooooooooooooooooooooooooooo",
"xxxxxxxxxxxxxxxxxxxxxxxxxxxxxxxxoooooooooooooooooooooooooooooooo"
};
