/* XPM */
static char * highland_xpm[] = {
"32 32 7 1",
" 	c white",
".	c gray95",
"X	c gray90",
"o	c gray60",
"O	c gray80",
"+	c gray50",
"@	c gray45",
" ...............................",
"X .............................o",
"XX ...........................oo",
"XXX .........................ooo",
"XXXX .......................oooo",
"XXXXX .....................ooooo",
"XXXXXX ...................oooooo",
"XXXXXXX .................ooooooo",
"XXXXXXXX ...............oooooooo",
"XXXXXXXXXOOOOOOOOOOOOOOooooooooo",
"XXXXXXXXXOOOOOOOOOOOOOOooooooooo",
"XXXXXXXXXOOOOOOOOOOOOOOooooooooo",
"XXXXXXXXXOOOOOOOOOOOOOOooooooooo",
"XXXXXXXXXOOOOOOOOOOOOOOooooooooo",
"XXXXXXXXXOOOOOOOOOOOOOOooooooooo",
"XXXXXXXXXOOOOOOOOOOOOOOooooooooo",
"XXXXXXXXXOOOOOOOOOOOOOOooooooooo",
"XXXXXXXXXOOOOOOOOOOOOOOooooooooo",
"XXXXXXXXXOOOOOOOOOOOOOOooooooooo",
"XXXXXXXXXOOOOOOOOOOOOOOooooooooo",
"XXXXXXXXXOOOOOOOOOOOOOOooooooooo",
"XXXXXXXXXOOOOOOOOOOOOOOooooooooo",
"XXXXXXXXXOOOOOOOOOOOOOOooooooooo",
"XXXXXXXXX++++++++++++++@oooooooo",
"XXXXXXXX++++++++++++++++@ooooooo",
"XXXXXXX++++++++++++++++++@oooooo",
"XXXXXX++++++++++++++++++++@ooooo",
"XXXXX++++++++++++++++++++++@oooo",
"XXXX++++++++++++++++++++++++@ooo",
"XXX++++++++++++++++++++++++++@oo",
"XX++++++++++++++++++++++++++++@o",
"X++++++++++++++++++++++++++++++@"};
