/* XPM */
static char * grid16_xpm[] = {
"16 16 3 1",
" 	s None	c None",
".	c white",
"X	c black",
" ..  ..  ..  ..X",
".               ",
".               ",
"               X",
"               X",
".               ",
".               ",
"               X",
"               X",
".               ",
".               ",
"               X",
"               X",
".               ",
".               ",
"X  XX  XX  XX  X"};
