/* XPM */
static char * cursor__xpm[] = {
"16 16 8 1 1 1",
" 	c white",
".	s None	c None",
"X	c black",
"o	c gray50",
"O	c gray90",
"+	c gray70",
"@	c gray80",
"#	c gray",
"  ..............",
" X .............",
" XX ............",
" XXX ...........",
" XXXX ..........",
" XXXXX .........",
" XXXXXX ........",
" XXXXXXX .......",
" XXXXoO+X ......",
" XX@XX    ......",
" X@ XX .........",
" X . XX ........",
"  .. XX ........",
"..... XX .......",
"..... X# .......",
"......  ........"};
