/* XPM */
static char * cursor_disabled_xpm[] = {
"32 32 8 1",
" 	c white",
".	s None	c None",
"X	c black",
"o	c gray50",
"O	c gray90",
"+	c gray70",
"@	c gray80",
"#	c gray",
"  ..............................",
" X .............................",
" XX ............................",
" XXX ...........................",
" XXXX ..........................",
" XXXXX .........................",
" XXXXXX ........................",
" XXXXXXX .......................",
" XXXXoO+X ......................",
" XX@XX    ......................",
" X@ XX ......     ..............",
" X . XX .... XXXXX .............",
"  .. XX  .. XXXXXXX ............",
"..... XX . XX+   oXX ...........",
"..... X#  XX+ . oXoXX ..........",
"......    XX . oXo XX ..........",
"......... XX  oXo  XX ..........",
"......... XX oXo . XX ..........",
"......... XXoXo . +XX ..........",
".......... XXo   +XX ...........",
"........... XXXXXXX ............",
"............ XXXXX .............",
".............     ..............",
"................................",
"................................",
"................................",
"................................",
"................................",
"................................",
"................................",
"................................",
"................................"};
