/* XPM */
static char * cursor_connect2_xpm[] = {
"32 32 8 1",
" 	c white",
".	s None	c None",
"X	c black",
"o	c gray50",
"O	c gray90",
"+	c gray70",
"@	c gray80",
"#	c gray",
"  ..............................",
" X .............................",
" XX ............................",
" XXX ...........................",
" XXXX ..........................",
" XXXXX .........................",
" XXXXXX ........................",
" XXXXXXX .......................",
" XXXXoO+X ......................",
" XX@XX    ......................",
" X@ XX .........................",
" X . XX ........................",
"  .. XX ....    ................",
"..... XX ... XX ................",
"..... X# ... XX    .............",
"......  .... XX XXXO............",
"............ XX X OX ...........",
"............ XX X  XO    .......",
"............ XX X  OXXXX .......",
"............ XX X  OXXXX .......",
"............ XX X  XO    .......",
"............ XX X OX ...........",
"............ XX XXXO............",
"............ XX    .............",
"............ XX ................",
"............    ................",
"................................",
"................................",
"................................",
"................................",
"................................",
"................................"};
