/* XPM */
static char * line_route_S_xpm[] = {
"32 16 6 1",
" 	s None	c None",
".	c #8888FFFF8888",
"X	c #CCCCFFFFCCCC",
"o	c black",
"O	c gray80",
"+	c gray50",
"          .....                 ",
"          .XXX.             oo  ",
"          .XXX.            Ooo  ",
"          .XXX.            ooO  ",
"          .....           Ooo   ",
"          OOOOO           ooO   ",
"        O+ooooo+O        Ooo    ",
"       ooo+++++ooo       ooO    ",
"      oooO     Oooo     Ooo     ",
"     ooo         ooo+  OooO     ",
"    ooo           ooooooo+      ",
"   ooo              .....       ",
"  ooo               .XXX.       ",
"  oo                .XXX.       ",
"                    .XXX.       ",
"                    .....       "};
