/* XPM */
static char * line_R_rhombi_B_xpm[] = {
"16 8 2 1",
" 	s None	c None",
".	c black",
"                ",
"      ..        ",
"    ......      ",
"............    ",
"............    ",
"    ......      ",
"      ..        ",
"                "};
