/* XPM */
static char * line_route_L_xpm[] = {
"32 16 5 1",
" 	s None	c None",
".	c #8888FFFF8888",
"X	c #CCCCFFFFCCCC",
"o	c black",
"O	c #6666AAAA6666",
"                    .....       ",
"                    .XXX.       ",
"              oooooo.OOO.ooooo  ",
"              oooooo.OOO.ooooo  ",
"              oo    .XXX.       ",
"              oo    .....       ",
"            ......              ",
"            .XOOX.              ",
"            .XOOX.              ",
"            .XOOX.              ",
"            ......              ",
"              oo                ",
"  oooooooooooooo                ",
"  oooooooooooooo                ",
"                                ",
"                                "};
