/* XPM */
static char * portrait_xpm[] = {
"32 32 4 1",
" 	s None	c None",
".	c black",
"X	c white",
"o	c gray80",
"                                ",
"     ................           ",
"     .XXXXXXXXXXXXXX..          ",
"     .XXXXXXXXXXXXXX.X.         ",
"     .XXXXXXXXXXXXXX.XX.        ",
"     .XXXXXXXXXXXXXX.XXX.       ",
"     .XXXXXXXXXXXXXX......      ",
"     .XXXXXXXXXXXXXXXXXXX.o     ",
"     .XXXXXXXXXXXXXXXXXXX.o     ",
"     .XXXXXXXXXXXXXXXXXXX.o     ",
"     .XXXXXXXXXXXXXXXXXXX.o     ",
"     .XXXXXXXXXXXXXXXXXXX.o     ",
"     .XXXXXXXXXXXXXXXXXXX.o     ",
"     .XXXXXXXXXXXXXXXXXXX.o     ",
"     .XXXXXXXXXXXXXXXXXXX.o     ",
"     .XXXXXXXXXXXXXXXXXXX.o     ",
"     .XXXXXXXXXXXXXXXXXXX.o     ",
"     .XXXXXXXXXXXXXXXXXXX.o     ",
"     .XXXXXXXXXXXXXXXXXXX.o     ",
"     .XXXXXXXXXXXXXXXXXXX.o     ",
"     .XXXXXXXXXXXXXXXXXXX.o     ",
"     .XXXXXXXXXXXXXXXXXXX.o     ",
"     .XXXXXXXXXXXXXXXXXXX.o     ",
"     .XXXXXXXXXXXXXXXXXXX.o     ",
"     .XXXXXXXXXXXXXXXXXXX.o     ",
"     .XXXXXXXXXXXXXXXXXXX.o     ",
"     .XXXXXXXXXXXXXXXXXXX.o     ",
"     .XXXXXXXXXXXXXXXXXXX.o     ",
"     .XXXXXXXXXXXXXXXXXXX.o     ",
"     .XXXXXXXXXXXXXXXXXXX.o     ",
"     .....................o     ",
"      ooooooooooooooooooooo     "};
