/* XPM */
static char * pulldown_xpm[] = {
"8 8 2 1",
" 	c black",
".	s None	c None",
" ...... ",
"  ....  ",
".  ..  .",
" .    . ",
"  .  .  ",
".  ..  .",
"..    ..",
"...  ..."};
