/* XPM */
static char * udr_xpm[] = {
"16 16 4 1",
" 	s None	c None",
".	c gray50",
"X	c white",
"o	c black",
"  .........     ",
"  .XXXXXXX..    ",
"  .Xoooooo.X.   ",
"  .XoXXXXX....  ",
"  .XoXXXXXoXX.  ",
"  .XoooooooXX.  ",
"  .XoXXXXXoXX.  ",
"  .XoooooooXX.  ",
"  .XXXXoXXXXX.  ",
"  .XXXXooooXX.  ",
"  .XXXXXXXoXX.  ",
"  .XXXXoooooo.  ",
"  .XXXXoXXXXX.  ",
"  .XXXXoooooo.  ",
"  .XXXXoXXXXX.  ",
"  ............  "};
