/* XPM */
static char * cursor_move_line_LR_xpm[] = {
"16 16 3 1 7 7",
" 	s None	c None",
".	c gray90",
"X	c black",
"                ",
"      . .       ",
"     .X.X.      ",
"     .X.X.      ",
"  .  .X.X.  .   ",
" .X. .X.X. .X.  ",
".X....X.X....X. ",
"XXXXX.X.X.XXXXX.",
".X....X.X....X. ",
" .X. .X.X. .X.  ",
"  .  .X.X.  ..  ",
"     .X.X.      ",
"     .X.X.      ",
"      . .       ",
"                ",
"                "};
