/* XPM */
static char * cursor_move_box_LR_xpm[] = {
"16 16 3 1 7 7",
" 	s None	c None",
".	c gray90",
"X	c black",
"                ",
"                ",
"     ......     ",
"    .XXXXXX.    ",
"  . .X....X. .  ",
" .X..X.  .X..X. ",
".X...X.  .X...X.",
"XXXX.X.  .X.XXXX",
".X...X.  .X...X.",
" .X..X.  .X. X. ",
"  . .X....X. .. ",
"    .XXXXXX.    ",
"     ......     ",
"                ",
"                ",
"                "};
