/* XPM */
static char * cursor_move_box_UD_xpm[] = {
"16 16 3 1",
" 	s None	c None",
".	c gray90",
"X	c black",
"      .X.       ",
"     .XXX.      ",
"    .X.X.X.     ",
"     ..X..      ",
"   .........    ",
"  .XXXXXXXXX.   ",
"  .X.......X.   ",
"  .X.     .X.   ",
"  .X.     .X.   ",
"  .X.......X.   ",
"  .XXXXXXXXX.   ",
"   .........    ",
"     ..X..      ",
"    .X.X.X.     ",
"    ..XXX.      ",
"      .X.       "};
