/* XPM */
static char * 0_xpm[] = {
"32 8 2 1",
" 	s None	c None",
".	c black",
"                                ",
"                                ",
"                                ",
"  ............................  ",
"  ............................  ",
"                                ",
"                                ",
"                                "};
