/* XPM */
static char * 4_xpm[] = {
"32 8 3 1",
" 	s None	c None",
".	c black",
"X	c white",
"                      ..        ",
"                      .X..      ",
"                      .XXX..    ",
"  ...   ...   ...   ...XXXXX..  ",
"  ...   ...   ...   ...XXXXX..  ",
"                      .XXX..    ",
"                      .X..      ",
"                      ..        "};
