/* XPM */
static char * 6_xpm[] = {
"32 8 3 1",
" 	s None	c None",
".	c black",
"X	c white",
"                      ..        ",
"      ..               ...      ",
"    ..XX..               ...    ",
"  ..XXXXXX...   ...   ........  ",
"  ..XXXXXX...   ...   ........  ",
"    ..XX..               ...    ",
"      ..               ...      ",
"                      ..        "};
