/* XPM */
static char * end_ticket_xpm[] = {
"16 16 5 1",
" 	s None	c None",
".	c black",
"X	c white",
"o	c gray90",
"O	c gray",
"                ",
"                ",
"                ",
"       .        ",
"      .X.       ",
"     .oXX.      ",
"    .oXXXX. .   ",
"   .oXXXXXX.X.  ",
"  .oXXXXXX.XXo. ",
" .oXXXXXX.XXXXo.",
".oXXXXXX.XXXXXXo",
" .oXXXX.XXXXXXXX",
"  .oXXXo.oXXXXXX",
"   .oXo. .oX.XX.",
"    .o.   ..O.. ",
"     .          "};
