/* XPM */
static char * pulldown_mark_xpm[] = {
"6 6 2 1",
" 	s None	c None",
".	c black",
"      ",
"      ",
"      ",
" .....",
"  ... ",
"   .  "};
