/* XPM */
static char * landscape_xpm[] = {
"32 32 4 1",
" 	s None	c None",
".	c black",
"X	c white",
"o	c gray80",
"                                ",
"                                ",
"                                ",
"                                ",
"                                ",
"                                ",
" .........................      ",
" .XXXXXXXXXXXXXXXXXXXXXXX..     ",
" .XXXXXXXXXXXXXXXXXXXXXXX.X.    ",
" .XXXXXXXXXXXXXXXXXXXXXXX.XX.   ",
" .XXXXXXXXXXXXXXXXXXXXXXX.XXX.  ",
" .XXXXXXXXXXXXXXXXXXXXXXX...... ",
" .XXXXXXXXXXXXXXXXXXXXXXXXXXXX.o",
" .XXXXXXXXXXXXXXXXXXXXXXXXXXXX.o",
" .XXXXXXXXXXXXXXXXXXXXXXXXXXXX.o",
" .XXXXXXXXXXXXXXXXXXXXXXXXXXXX.o",
" .XXXXXXXXXXXXXXXXXXXXXXXXXXXX.o",
" .XXXXXXXXXXXXXXXXXXXXXXXXXXXX.o",
" .XXXXXXXXXXXXXXXXXXXXXXXXXXXX.o",
" .XXXXXXXXXXXXXXXXXXXXXXXXXXXX.o",
" .XXXXXXXXXXXXXXXXXXXXXXXXXXXX.o",
" .XXXXXXXXXXXXXXXXXXXXXXXXXXXX.o",
" .XXXXXXXXXXXXXXXXXXXXXXXXXXXX.o",
" .XXXXXXXXXXXXXXXXXXXXXXXXXXXX.o",
" .XXXXXXXXXXXXXXXXXXXXXXXXXXXX.o",
" .XXXXXXXXXXXXXXXXXXXXXXXXXXXX.o",
" ..............................o",
"  oooooooooooooooooooooooooooooo",
"                                ",
"                                ",
"                                ",
"                                "};
