/* XPM */
static char * line_L_triangle_xpm[] = {
"16 8 3 1",
" 	s None	c None",
".	c black",
"X	c white",
"          .     ",
"        ...     ",
"      ..XX.     ",
"    ..XXXX......",
"    ..XXXX......",
"      ..XX.     ",
"        ...     ",
"          .     "};
