/* XPM */
static char * pulldown_mark_xpm[] = {
"8 8 2 1",
" 	s None	c None",
".	c black",
"        ",
"....... ",
" .....  ",
"  ...   ",
"   .    ",
"        ",
"        ",
"        "};
