/* XPM */
static char * aster_xpm[] = {
"12 12 2 1",
" 	s None	c None",
".	c orange",
"     ..     ",
" ..  ..  .. ",
" ... .. ... ",
"  .. .. ..  ",
"            ",
"....    ....",
"....    ....",
"            ",
"  .. .. ..  ",
" ... .. ... ",
" ..  ..  .. ",
"     ..     "};
