/* XPM */
static char * li_mark_2_xpm[] = {
"12 12 2 1",
" 	s None	c None",
".	c black",
"            ",
"            ",
"     ..     ",
"    ....    ",
"   ......   ",
"  ........  ",
"  ........  ",
"   ......   ",
"    ....    ",
"     ..     ",
"            ",
"            "};
