/* XPM */
static char * scratch[] = {
"12 12 2 1",
" 	s None	c None",
".	c black",
"            ",
"            ",
"   ..       ",
"   ....     ",
"   ......   ",
"   ........ ",
"   ........ ",
"   ......   ",
"   ....     ",
"   ..       ",
"            ",
"            "};
