/* XPM */
static char * line_route_N_xpm[] = {
"32 16 6 1",
" 	s None	c None",
".	c #8888FFFF8888",
"X	c #CCCCFFFFCCCC",
"o	c black",
"O	c #6666AAAA6666",
"+	c gray80",
"          .....                 ",
"          .XXX.             oo  ",
"          .XOX.            +oo  ",
"          .OOO.            oo+  ",
"          .....           +oo   ",
"         ooo ooo          oo+   ",
"        ooo   ooo        +oo    ",
"       ooo     ooo       oo+    ",
"      ooo       ooo     +oo     ",
"     ooo         ooo    oo+     ",
"    ooo           ooo  +oo      ",
"   ooo             o.....+      ",
"  ooo               .OOO.       ",
"  oo                .OOO.       ",
"                    .XOO.       ",
"                    .....       "};
