/* XPM */
static char * scratch[] = {
"32 8 2 1",
" 	s None	c None",
".	c black",
"                                ",
"                                ",
"                                ",
"..    ....    ....    ....    ..",
"..    ....    ....    ....    ..",
"                                ",
"                                ",
"                                "};
