/* XPM */
static char * attack_tn2_xpm[] = {
"144 48 4 1",
" 	s None	c None",
".	c white",
"X	c gray50",
"o	c gray70",
"                                                                                                                                                ",
"                                                                    . .                                                                         ",
"                 .......                                         . . . .                                                                        ",
"                ............                                  . . . . . .                                                                       ",
"                ...X........                                 . . . . . .                                                                        ",
"                ...X........                                . . . . . . .                                                                       ",
"                ...X........                             . . . . . . . .                                                                        ",
"                XXXX........                            . . . . . . . . .                                                                       ",
"                .........                              . . . . . . . . .                                                                        ",
"                 .......                              . . . . . . . . .                                                                         ",
"                                                     . . . . . . . . .                                                                          ",
"                                                      . . . . . . .                                                                             ",
"                                                     . . . . . .                                                                                ",
"                                                   .. . . . . .                                                                                 ",
"                                                   ... . . . .                                                                                  ",
"                                                  ..... . . .                                                                                   ",
"                                                  ...... . .                                                                                    ",
"                                                 ........ .                                                                                     ",
"                                                 .........                                                                                      ",
"                                                 .........                                                                                      ",
"                                                 .........                                                                                      ",
"                                                .........                                                                                       ",
"                                                .........                                                                                       ",
"                                                .........                                                                                       ",
"                                                .........                                                                                       ",
"                                                .........                                       .......                                         ",
"                                                .........                                       .......                                         ",
"                                                .........                                       .......                                         ",
"                                                .........                                       .......                                         ",
"                                                .........                                      .........                                        ",
"                                                .........                                      ..........                                       ",
"                                                 .......                                       ..........                                       ",
"                                                                                               ..........                                       ",
"                                                                                               ..........                                       ",
"                                                                                               ..........                                       ",
"                                                                                               ..........                                       ",
"                                                                                                .o.o..o.                                        ",
"                                                                                                                                                ",
"                                                                                                                                                ",
"                                                                                                                                                ",
"                                                                                                                                                ",
"                                                                                                                                                ",
"                                                                                                                                                ",
"                                                                                                                                                ",
"                                                                                                                                                ",
"                                                                                                                                                ",
"                                                                                                                                                ",
"                                                                                                                                                "};
