/* XPM */
static char * niconama_xpm[] = {
"64 64 6 1",
" 	s None	c None",
".	c white",
"X	c black",
"o	c gray",
"O	c #FFFFAAAA0000",
"+	c #FFFFDDDD0000",
"                                                                ",
"                                                                ",
"                                                                ",
"                                                                ",
"                                                                ",
"                                                                ",
"                                                                ",
"                                                                ",
"                     ....           ....                        ",
"                     .XXX.         .XXX.                        ",
"                      .XXX.       .XXX.                         ",
"                       .XXX.     .XXX.                          ",
"                        .XXX.   .XXX.                           ",
"                         .XXX. .XXX.                            ",
"                          .XXX.XXX.                             ",
"          ..................XXXXX..................             ",
"         .XXXXXXXXXXXXXXXXXXXXXXXXXXXXXXXXXXXXXXXXX.            ",
"        .XXXXXXXXXXXXXXXXXXXXXXXXXXXXXXXXXXXXXXXXXXX.           ",
"        .XX.......................................XX.           ",
"        .XX.......................................XX.           ",
"        .XX...XXXXXXXXXXXXXXXXXXXXXXXXXXXXXXXXX...XX.           ",
"        .XX..XXXXXXXXXXXXXXXXXXXXXXXXXXXXXXXXXXX..XX.           ",
"        .XX..XX...............................XX..XX.           ",
"        .XX..XX...............................XX..XX.           ",
"        .XX..XX.......................XXX.....XX..XX.           ",
"        .XX..XX......................XXXXX....XX..XX.           ",
"        .XX..XX......................XXXXX....XX..XX.           ",
"        .XX..XX....XXX...............XXXXX....XX..XX.           ",
"        .XX..XX...XXXXX...............XXX.....XX..XX.           ",
"        .XX..XX...XXXXX.......................XX..XX.           ",
"        .XX..XX...XXXXX.......................XX..XX.           ",
"        .XX..XX....XXX........................Xo..XX.           ",
"        .XX..XX...............................oOO.XX.           ",
"        .XX..XX...............................OOOOoX.           ",
"        .XX..XX..............XX...............OOOOoX.           ",
"        .XX..XX.............XXXX.............OO++OOo.           ",
"        .XX..XX............XXXXXX............OO++OOo.           ",
"        .XX..XX...........XXXXXXXX..........OO++++OO.           ",
"        .XX..XX..........XXXXXXXXXX.........OO+XX+OO.           ",
"        .XX..XX............................OO++XX++OO           ",
"        .XX..XX............................OO++XX++OO           ",
"        .XX..XXXXXXXXXXXXXXXXXXXXXXXXXXXXoOO+++XX+++OO          ",
"        .XX...XXXXXXXXXXXXXXXXXXXXXXXXXXXoOO+++XX+++OO          ",
"        .XX..............................OO++++XX++++OO         ",
"        .XX..............................OO++++XX++++OO         ",
"        .XXXXXXXXXXXXXXXXXXXXXXXXXXXXXXoOO++++++++++++OO        ",
"         .XXXXXXXXXXXXXXXXXXXXXXXXXXXXXoOO+++++XX+++++OO        ",
"          ....XX.XX....................OO++++++XX++++++OO       ",
"             .XX.XX.                   OO++++++++++++++OO       ",
"              .XXX.                    OOOOOOOOOOOOOOOOOO       ",
"               ...                      OOOOOOOOOOOOOOOO        ",
"                                                                ",
"                                                                ",
"                                                                ",
"                                                                ",
"                                                                ",
"                                                                ",
"                                                                ",
"                                                                ",
"                                                                ",
"                                                                ",
"                                                                ",
"                                                                ",
"                                                                "};
