/* XPM */
static char * niconama_alert_trim_xpm[] = {
"48 48 6 1",
" 	s None	c None",
".	c white",
"X	c black",
"o	c gray",
"O	c #FFFFAAAA0000",
"+	c #FFFFDDDD0000",
"                                                ",
"             ....           ....                ",
"             .XXX.         .XXX.                ",
"              .XXX.       .XXX.                 ",
"               .XXX.     .XXX.                  ",
"                .XXX.   .XXX.                   ",
"                 .XXX. .XXX.                    ",
"                  .XXX.XXX.                     ",
"  ..................XXXXX..................     ",
" .XXXXXXXXXXXXXXXXXXXXXXXXXXXXXXXXXXXXXXXXX.    ",
".XXXXXXXXXXXXXXXXXXXXXXXXXXXXXXXXXXXXXXXXXXX.   ",
".XX.......................................XX.   ",
".XX.......................................XX.   ",
".XX...XXXXXXXXXXXXXXXXXXXXXXXXXXXXXXXXX...XX.   ",
".XX..XXXXXXXXXXXXXXXXXXXXXXXXXXXXXXXXXXX..XX.   ",
".XX..XX...............................XX..XX.   ",
".XX..XX...............................XX..XX.   ",
".XX..XX.......................XXX.....XX..XX.   ",
".XX..XX......................XXXXX....XX..XX.   ",
".XX..XX......................XXXXX....XX..XX.   ",
".XX..XX....XXX...............XXXXX....XX..XX.   ",
".XX..XX...XXXXX...............XXX.....XX..XX.   ",
".XX..XX...XXXXX.......................XX..XX.   ",
".XX..XX...XXXXX.......................XX..XX.   ",
".XX..XX....XXX........................oo..XX.   ",
".XX..XX...............................OO..XX    ",
".XX..XX..............................OOOO.XX    ",
".XX..XX..............XX..............OOOO.XX    ",
".XX..XX.............XXXX............OO++OOoX    ",
".XX..XX............XXXXXX...........OO++OOoX    ",
".XX..XX...........XXXXXXXX.........OO++++OOo    ",
".XX..XX..........XXXXXXXXXX........OO+XX+OOo    ",
".XX..XX...........................OO++XX++OO    ",
".XX..XX...........................OO++XX++OO    ",
".XX..XXXXXXXXXXXXXXXXXXXXXXXXXXXoOO+++XX+++OO   ",
".XX...XXXXXXXXXXXXXXXXXXXXXXXXXXoOO+++XX+++OO   ",
".XX.............................OO++++XX++++OO  ",
".XX.............................OO++++XX++++OO  ",
".XXXXXXXXXXXXXXXXXXXXXXXXXXXXXoOO++++++++++++OO ",
" .XXXXXXXXXXXXXXXXXXXXXXXXXXXXoOO+++++XX+++++OO ",
"  ....XX.XX...................OO++++++XX++++++OO",
"     .XX.XX.                  OO++++++++++++++OO",
"      .XXX.                   OOOOOOOOOOOOOOOOOO",
"       ...                     OOOOOOOOOOOOOOOO ",
"                                                ",
"                                                ",
"                                                ",
"                                                "};
