/* XPM */
static char * cursor_remove_xpm[] = {
"32 32 9 1",
" 	c white",
".	s None	c None",
"X	c black",
"o	c gray50",
"O	c gray90",
"+	c gray70",
"@	c gray80",
"#	c red",
"$	c gray",
"  ..............................",
" X .............................",
" XX ............................",
" XXX ...........................",
" XXXX ..........................",
" XXXXX .........................",
" XXXXXX ........................",
" XXXXXXX .......................",
" XXXXoO+X ......................",
" XX@XX    ......................",
" X@ XX .........................",
" X . XX .   ........   .........",
"  .. XX . ## ...... ## .........",
"..... XX  ### .... ### .........",
"..... X$ . ### .. ### ..........",
"......  ... ###  ### ...........",
"............ ###### ............",
"............. #### .............",
"............. #### .............",
"............ ###### ............",
"........... ###  ### ...........",
".......... ### .. ### ..........",
"......... ### .... ### .........",
"......... ## ...... ## .........",
".........   ........   .........",
"................................",
"................................",
"................................",
"................................",
"................................",
"................................",
"................................"};
