/* XPM */
static char * line_R_rhombi_xpm[] = {
"16 8 3 1",
" 	s None	c None",
".	c black",
"X	c white",
"                ",
"      ..        ",
"    ..XX..      ",
"....XXXXXX..    ",
"....XXXXXX..    ",
"    ..XX..      ",
"      ..        ",
"                "};
