/* XPM */
static char * line_normal_xpm[] = {
"32 8 2 1",
" 	s None	c None",
".	c black",
"                                ",
"                                ",
"                                ",
"................................",
"................................",
"                                ",
"                                ",
"                                "};
