/* XPM */
static char * collision_map_xpm[] = {
"32 16 2 1",
" 	s None	c None",
".	c red",
"                  ..  ..  ..  ..",
"                 .            ..",
"                . .          .  ",
"                .  .        .   ",
"                    .      .   .",
"                     .    .    .",
"                .     .  .      ",
"                .      ..       ",
"                       ..      .",
"                      .  .     .",
"                .    .    .     ",
"                .   .      .    ",
"                   .        .  .",
"                  .          . .",
"                ..            . ",
"                ..  ..  ..  ..  "};
