/* XPM */
static char * scratch[] = {
"32 32 2 1",
" 	s None	c None",
".	c red",
"    .                      .    ",
"   ...                    ...   ",
"  .....                  .....  ",
" .......                ....... ",
".........              .........",
" .........            ......... ",
"  .........          .........  ",
"   .........        .........   ",
"    .........      .........    ",
"     .........    .........     ",
"      .........  .........      ",
"       ..................       ",
"        ................        ",
"         ..............         ",
"          ............          ",
"           ..........           ",
"           ..........           ",
"          ............          ",
"         ..............         ",
"        ................        ",
"       ..................       ",
"      .........  .........      ",
"     .........    .........     ",
"    .........      .........    ",
"   .........        .........   ",
"  .........          .........  ",
" .........            ......... ",
".........              .........",
" .......                ....... ",
"  .....                  .....  ",
"   ...                    ...   ",
"    .                      .    "};
