/* XPM */
static char * closed_ticket_xpm[] = {
"16 16 5 1",
" 	s None	c None",
".	c black",
"X	c white",
"o	c red",
"O	c gray",
"                ",
"                ",
"                ",
".......... .....",
".XXXXXXXX. .XXX.",
".XXXXXXXXX XoXX.",
".XXXXXXXXo oooX.",
".XXoXXXXo. .oXX.",
".XoooXXooo oXXX.",
".XXooooooX XXXX.",
".XXXooooX. .XXX.",
".XXXXooXXX XX...",
".XXXXXXXX. .X.O ",
".......... ...  ",
"                ",
"                "};
