/* XPM */
static char * closed_ticket_xpm[] = {
"16 16 5 1",
" 	s None	c None",
".	c black",
"X	c white",
"o	c green",
"O	c gray",
"                ",
"                ",
"                ",
".......... .....",
".XXXXXXXX. .XXX.",
".XXXXXXXXX XoXX.",
".XXXXXXXX. .ooX.",
".XXoXXXXoo ooXX.",
".XoooXXoo. .XXX.",
".XXooooooX XXXX.",
".XXXooooX. .XXX.",
".XXXXooXXX XX...",
".XXXXXXXX. .X.O ",
".......... ...  ",
"                ",
"                "};
