/* XPM */
static char * corner_xpm[] = {
"8 8 3 1",
" 	s None	c None",
".	c gray60",
"X	c gray88",
"        ",
"        ",
"        ",
"       .",
"    ...X",
"    .XX ",
"    .XX ",
"   .X   "};
