/* XPM */
static char * priority_xpm[] = {
"16 16 7 1",
" 	s None	c None",
".	c black",
"X	c white",
"o	c red",
"O	c #A0A0A0A00000",
"+	c #0000E0E00000",
"@	c gray",
"                ",
"                ",
"                ",
"................",
".XXXXXXXXX.XXXX.",
".XXXXXXXXXXXXXX.",
".XoXXXXXXX.XXXX.",
".XoXXXXXXXXXXXX.",
".XoXOXXXXX.XXXX.",
".XoXOXXXXXXXXXX.",
".XoXOX+XXX.XXXX.",
".XoXOX+XXXXXX...",
".XXXXXXXXX.XX.@ ",
"..............  ",
"                ",
"                "};
