/* XPM */
static char * ticket_xpm[] = {
"48 32 4 1",
" 	s None	c None",
".	c black",
"X	c white",
"o	c gray80",
"                                                ",
"                                                ",
"                                                ",
"   ................................             ",
"   .XXXXXXXXXXXXXXXXXXXXXXXXXXXXXX.             ",
"   .XX.X.XX...X...X...XXX.XXXXXXXX.             ",
"   .X.....X.X.X.X.X.X.XXX.XXXXXXXX.             ",
"   .XX.X.XX...X...X...XXXXXXXXXXXX.             ",
"   .X.....XXX.XXX.XXX.XXX.XXXXXXXX.             ",
"   .XX.X.XX...X...X...XXX.XXXXXXXX.             ",
"   .XXXXXXXXXXXXXXXXXXXXXXXXXXXXXX.             ",
"   .XXXXXXXXXXXXXXXXXXXXX.XXXXXXXX.             ",
"   .XXXXXXXXXXXXXXXXXXXXX.XXXXXXXX.             ",
"   .XXXXXXXXXXXXXXXXXXXXXXXXXXXXXX.             ",
"   .XXXXXXXXXXXXXXXXXXXXX.XXXXX....             ",
"   .XXXXXXXXXXXXXXXXXXXXX.XXXXX.oo              ",
"   .XXXXXXXXXXXXXXXXXXXXXXXXXXX.o               ",
"   .............................                ",
"                                                ",
"                                                ",
"                                                ",
"                                                ",
"                                                ",
"                                                ",
"                                                ",
"                                                ",
"                                                ",
"                                                ",
"                                                ",
"                                                ",
"                                                ",
"                                                "};
